<?xml version="1.0" standalone="no"?>
<!DOCTYPE svg PUBLIC "-//W3C//DTD SVG 1.1//EN" "http://www.w3.org/Graphics/SVG/1.1/DTD/svg11.dtd" >
<svg xmlns="http://www.w3.org/2000/svg" xmlns:xlink="http://www.w3.org/1999/xlink" version="1.1">
<metadata></metadata>
<defs>
<font id="blondeblonde" horiz-adv-x="0" >
<font-face units-per-em="1000" ascent="800" descent="-200" />
<missing-glyph horiz-adv-x="240" />
<glyph />
<glyph unicode="&#xd;" horiz-adv-x="240" />
<glyph />
<glyph />
<glyph unicode=" "  horiz-adv-x="240" />
<glyph unicode="&#x09;" horiz-adv-x="240" />
<glyph unicode="&#xa0;" horiz-adv-x="240" />
<glyph unicode="!" horiz-adv-x="279" d="M194 65q8 -12 -2 -22l-49 -41q-5 -4 -11 -3.5t-10 5.5l-40 48q-5 5 -4.5 11t5.5 10l48 42q5 5 11 4.5t10 -5.5zM111 190q-8 -7 -16.5 -3t-8.5 14v460q0 8 5 11l63 55q8 7 17 2.5t9 -14.5v-461q0 -8 -6 -12z" />
<glyph unicode="&#x22;" horiz-adv-x="328" d="M67 457q-7 -5 -12 -3t-8 6q-7 10 8 23q12 11 6.5 24t-28.5 42q-5 5 -4.5 10.5t5.5 10.5l47 43q5 4 11 4t10 -5l35 -39q10 -11 10.5 -23t-4 -22.5t-11.5 -18.5t-12 -12zM222 457q-7 -5 -12 -3t-8 6q-7 10 8 23q12 11 6.5 24t-28.5 42q-5 5 -4.5 10.5t5.5 10.5l47 43 q5 4 11 4t10 -5l35 -39q10 -11 10.5 -23t-4 -22.5t-11.5 -18.5t-12 -12z" />
<glyph unicode="#" horiz-adv-x="552" d="M408 332l-12 -67h108q10 0 14 -8.5t-2 -16.5l-52 -63q-5 -6 -12 -6h-72l-10 -53q-1 -3 -2 -6.5t-3 -5.5l-63 -52q-8 -6 -16.5 -2t-8.5 14l18 105h-76l-9 -53q0 -8 -6 -12l-62 -52q-8 -6 -17 -2t-9 14l19 105h-108q-10 0 -14 9t2 17l55 63q5 5 11 5h71l11 67h-98 q-11 0 -15 8.5t3 16.5l54 63q4 6 12 6h61l11 63q0 6 6 11l63 55q8 6 16.5 2t8.5 -14l-21 -117h77l11 63q0 6 5 11l63 55q8 6 17 2t9 -14l-21 -117h116q11 0 15 -9t-3 -17l-52 -63q-5 -5 -12 -5h-81zM324 332h-76l-12 -67h76z" />
<glyph unicode="$" horiz-adv-x="415" d="M340 462q8 7 17 3t9 -15v-339q0 -4 -1 -6l-2 -4l-3 -3l-117 -94q-4 -4 -8.5 -3t-8.5 3v-77q0 -6 -4 -10.5t-10 -4.5q-5 0 -9.5 4.5t-4.5 10.5v96q-8 5 -18 9t-18 4q-17 0 -31 -5t-25 -11q-13 -7 -24 -16q-5 -5 -10.5 -4t-9.5 6q-9 10 2 19l28 27q21 21 47.5 40.5 t58.5 23.5v188l-114 -96q-8 -7 -16.5 -3t-8.5 14v332q0 4 2 8q1 2 3 3l117 94q9 5 17 1v82q0 5 4.5 9.5t9.5 4.5q6 0 10 -4.5t4 -9.5v-102q30 -17 60.5 -9t56.5 29q3 3 9.5 3t9.5 -5q8 -11 -2 -20l-28 -27q-21 -21 -47.5 -40.5t-58.5 -23.5v-178zM153 303l45 39v204 q-11 2 -22.5 7.5t-22.5 13.5v-264zM272 364l-46 -39v-210q12 -2 23 -7.5t23 -13.5v270z" />
<glyph unicode="%" horiz-adv-x="683" d="M37 84q-7 9 1 19l601 503q11 7 19 -2q9 -11 -1 -20l-601 -502q-10 -9 -19 2zM230 631q17 -15 30 -27q11 -11 20.5 -19.5t10.5 -8.5q19 -14 19 -39v-100q0 -7 -5 -12l-153 -129q-4 -4 -10.5 -4.5t-11.5 3.5l-62 49q-26 21 -26 53v89q0 7 6 12l160 135q5 4 11 3.5t11 -5.5z M209 384v120q0 8 -6 14l-44 34l-16 -13v-118q0 -7 5 -12l43 -40zM572 390q18 -16 31 -27q11 -11 20.5 -19t10.5 -8q19 -16 19 -40v-100q0 -8 -6 -12l-152 -128q-4 -4 -10 -5t-12 3l-62 50q-12 9 -19 23t-7 29v89q0 7 6 13l160 134q12 10 21 -2zM552 143v1v119q0 9 -6 14 l-44 34l-16 -13v-118q0 -7 5 -12l43 -40z" />
<glyph unicode="&#x26;" horiz-adv-x="598" d="M392 199l9 -10q20 -24 40.5 -48t38.5 -42t32 -26.5t23 -0.5l17 14q8 8 19 -2q4 -4 3.5 -10t-5.5 -10l-41 -36q-30 -23 -56 -27t-51.5 10t-54 44t-62.5 74l-154 -125q-5 -4 -12 -4q-6 0 -10 3l-62 50q-13 10 -19.5 24t-6.5 29v136q0 7 5 12l94 79l-43 54q-8 10 -13.5 21.5 t-5.5 25.5v147q0 7 6 12l160 135q12 8 22 -2q17 -15 30 -27q11 -11 20.5 -19.5t10.5 -8.5q19 -14 19 -39v-160q0 -7 -5 -12l-98 -81l132 -158l37 29l-32 38q-4 5 -3.5 11t5.5 11l49 41q5 4 10.5 3.5t10.5 -5.5l41 -49q4 -5 3.5 -11t-5.5 -10zM194 648l-16 -13v-179 q0 -7 5 -12l41 -43l20 18v180q0 8 -6 13zM158 309l-17 -15v-164q0 -6 5 -13l43 -39l96 75z" />
<glyph unicode="'" horiz-adv-x="160" d="M60 457q-7 -5 -12 -3t-8 6q-7 10 8 23q12 11 6.5 24t-28.5 42q-5 5 -4.5 10.5t5.5 10.5l47 43q5 4 11 4t10 -5l35 -39q10 -11 10.5 -23t-4 -22.5t-11.5 -18.5t-12 -12z" />
<glyph unicode="(" horiz-adv-x="300" d="M165 610q-47 -69 -61 -147t0 -154.5t53 -147t97 -123.5q10 -9 2 -20l-112 -133q-4 -4 -9.5 -5t-10.5 4q-11 9 -2 20l23 27q-57 66 -86.5 156t-31 185.5t27 188t87.5 165.5q3 5 8.5 6t10.5 -2q11 -8 4 -20z" />
<glyph unicode=")" horiz-adv-x="312" d="M132 -89q44 77 56 155.5t-2.5 153t-51.5 141.5t-91 121q-11 9 -2 20l112 133q3 4 9.5 5t10.5 -3q11 -9 2 -20l-21 -28q43 -51 70 -116.5t38.5 -137.5t7.5 -145.5t-23 -140.5q-13 -38 -35 -74.5t-57 -80.5q-3 -5 -8.5 -6t-10.5 3q-5 3 -6 9t2 11z" />
<glyph unicode="*" horiz-adv-x="328" d="M272 540q8 0 10.5 -8t-4.5 -13l-61 -38l21 -37q7 -7 0 -13l-35 -33q-8 -6 -14 2l-38 43l-55 -44q-8 -6 -13.5 0.5t-2.5 12.5l34 60h-62q-4 0 -7.5 2t-3.5 7q0 3 0.5 6.5t3.5 5.5l71 44v18q0 7 5 12l63 52q7 6 15.5 2t8.5 -14v-67h64v0z" />
<glyph unicode="+" horiz-adv-x="584" d="M532 324q10 0 14 -9t-2 -17l-48 -57q-2 -3 -6.5 -7t-16.5 -4h-131v-131q0 -8 -3.5 -13t-5.5 -7l-59 -51q-8 -7 -17 -2.5t-9 14.5v190h-190q-11 0 -15 9t3 17l51 59q2 2 7 5.5t13 3.5h131v131q0 12 4 16.5t7 6.5l57 48q8 6 17 2t9 -14v-190h190v0z" />
<glyph unicode="," horiz-adv-x="161" d="M68 -55q-7 -5 -12 -3t-8 6q-7 10 8 23q11 10 6 24.5t-28 41.5q-5 5 -4.5 11t5.5 10l47 43q5 5 11 4.5t10 -5.5l34 -37q10 -11 11 -23t-3.5 -22.5t-11.5 -19.5t-12 -13z" />
<glyph unicode="-" horiz-adv-x="401" d="M334 223q-2 -2 -6.5 -6t-16.5 -4h-280q-10 0 -14 9t3 17l51 59q2 2 7 5.5t13 3.5h279q11 0 15 -9t-3 -17l-48 -58v0z" />
<glyph unicode="." horiz-adv-x="176" d="M146 64q8 -12 -2 -22l-49 -41q-5 -4 -11 -3.5t-10 5.5l-40 48q-5 5 -4.5 11t5.5 10l48 42q5 5 11 4.5t10 -5.5l42 -49v0z" />
<glyph unicode="/" horiz-adv-x="382" d="M440 726q4 3 8 0t2 -8l-340 -634q-3 -5 -7 -9l-5 -5l-83 -69q-5 -3 -10.5 1.5t-3.5 9.5l332 617q2 5 5 11t14 14z" />
<glyph unicode="0" horiz-adv-x="376" d="M163 5q-12 -9 -23 -1l-63 50q-25 19 -25 53v477q0 2 1 6t4 6l162 136q5 4 11 3.5t10 -5.5q18 -16 31 -28q11 -11 20.5 -19t10.5 -8q19 -16 19 -40v-489q0 -7 -5 -12zM220 94v1v507q0 8 -7 13l-44 35l-16 -13v-507q0 -7 5 -12l44 -40z" />
<glyph unicode="1" horiz-adv-x="340" d="M132 38q-20 0 -35.5 -5t-26.5 -10q-13 -6 -23 -14q-5 -5 -12.5 -8.5t-15.5 4.5q-7 11 1 19q11 12 28.5 28t30.5 27q7 6 17 12q16 11 39 21v519l-47 -39q-12 -9 -22 1q-4 5 -3.5 11.5t5.5 10.5l139 114q8 6 19 2.5t11 -15.5v-607q5 0 14.5 -3.5t20 -9.5t20.5 -13t17 -13 q5 -5 5.5 -11t-5.5 -11l-55 -45q-7 -4 -19 1q-40 17 -61.5 25.5t-41.5 8.5z" />
<glyph unicode="2" horiz-adv-x="423" d="M334 80l24 21q10 9 20 -1q4 -4 4 -9.5t-5 -10.5l-82 -76q-5 -5 -13 -3.5t-14 4.5q-10 5 -21 9q-10 4 -21.5 7t-22.5 3t-20.5 -3t-17.5 -7q-9 -4 -17 -9q-5 -5 -11.5 -5t-11.5 5l-26 26q-19 19 -19 45v186q1 8 4 12.5t14 13.5l136 115v207q0 5 -3 8l-42 40l-44 -36v-126 q0 -8 -7 -15l-71 -60q-5 -5 -11 -3.5t-9 5.5q-9 11 2 20l18 14v131q0 6 5 11l159 132q5 4 12 3.5t11 -5.5l58 -58q17 -17 17 -41v-177q0 -5 -1.5 -7.5t-3.5 -4.5l-149 -125v-212q43 13 85 8t74 -32z" />
<glyph unicode="3" horiz-adv-x="394" d="M327 669q17 -17 17 -41v-177q0 -5 -4 -9l-63 -49l50 -47q17 -17 17 -41v-197q0 -2 -1 -3.5t-2 -3.5t-2 -3l-118 -95q-10 -7 -20 2q-9 8 -20 15q-9 5 -20 10t-22 5q-17 0 -31.5 -5t-25.5 -11q-13 -7 -23 -16q-10 -8 -20 2q-7 10 2 20l28 26q16 14 30 26q12 10 25 19.5 t23 13.5q25 9 54 4.5t49 -21.5v192q0 4 -4 8l-41 39l-57 -48q-5 -4 -10.5 -3t-9.5 5q-9 11 2 20l120 100v202q0 4 -4 8l-42 40l-44 -36v-109q0 -7 -4 -11l-3 -3l-54 -45q-18 -14 -18 14v118q0 7 6 13l159 132q5 4 10 3.5t9 -3.5z" />
<glyph unicode="4" horiz-adv-x="469" d="M412 68q9 -11 -2 -20l-55 -45q-8 -5 -19 1q-39 18 -60.5 26t-41.5 8t-36 -4.5t-27.5 -10.5t-19 -12t-10.5 -8q-11 -7 -20 2q-4 5 -3.5 10t3.5 9q11 12 29 28t30 27q7 6 17 12q8 5 18 10t21 10v207l-125 -98q-12 -8 -20 -8t-8 11v314q0 20 4 26t7 9l63 52q8 7 18 2.5 t10 -15.5v-290l51 40v281q0 16 4 24.5t7 10.5l64 53q8 7 17.5 1t9.5 -24v-269l39 30q12 9 20 -1q9 -11 -2 -20l-57 -46v-292q6 0 15.5 -3.5t20 -9.5t20.5 -13t16 -13z" />
<glyph unicode="5" horiz-adv-x="447" d="M284 474q4 4 10 2q3 -1 4 -2l65 -61q17 -17 17 -42v-263q0 -2 -1 -3.5t-2 -3.5t-2 -3l-118 -95q-5 -3 -10.5 -3t-9.5 5q-11 8 -22 15q-9 5 -20 10t-20 5q-17 0 -31.5 -5.5t-25.5 -11.5q-13 -7 -24 -16q-11 -7 -20 2q-4 5 -3 10.5t5 9.5l29 27q16 14 30 26q12 10 25 19.5 t23 13.5q17 6 36 5.5t36 -6.5q16 -6 30 -16h1v258q0 3 -1 5t-3 4l-41 38l-144 -122q-8 -6 -17 -2t-9 14v325q0 13 5 20q3 4 6 6l112 90q10 7 20 -2q16 -16 34 -22.5t37 -5.5t37.5 9t34.5 21q5 3 10.5 3t9.5 -5q9 -11 -2 -20q-11 -10 -25.5 -23t-29.5 -25.5t-29 -22.5 t-23 -14q-25 -10 -52 -5t-50 21v-265z" />
<glyph unicode="6" horiz-adv-x="398" d="M322 388q19 -16 19 -40v-202q0 -7 -5 -12l-148 -126q-7 -5 -15 -8t-17 5q-23 19 -36 29.5t-19.5 16t-10 8t-6.5 5.5q-26 20 -26 54v465q0 2 1 6q2 6 10 13l151 127q5 4 11 3.5t10 -5.5l46 -42q5 -5 5 -12t-5 -12l-47 -42q-12 -10 -22 0l-38 36l-21 -18v-259l80 67 q5 4 11 3.5t10 -5.5q18 -16 31 -28q11 -11 20.5 -19t10.5 -8zM160 339v-196q0 -6 5 -11l59 -50l16 13v220q0 8 -7 13l-44 35z" />
<glyph unicode="7" horiz-adv-x="438" d="M160 362q0 8 4 13l65 106q19 36 40.5 73t39.5 73q-16 -8 -37 -10q-20 0 -38.5 5t-37 11t-37.5 11t-40 5q-17 0 -31 -8.5t-24.5 -22t-16 -30.5t-5.5 -34q0 -14 8.5 -33t19.5 -30l9 -8q10 -9 1 -20q-11 -11 -25 3q-40 35 -40 95q0 40 22 79q23 42 66.5 64t93.5 22 q20 0 41 -6t44.5 -9.5t49.5 -1t55 20.5q11 9 20 -2q4 -4 3.5 -10t-6.5 -12q-28 -28 -49.5 -63t-37.5 -71.5t-26.5 -72.5t-17 -65.5t-9 -51t-2.5 -29.5v-154q0 -34 4 -60t13 -40.5t23.5 -15.5t35.5 17l10 9q11 9 20 -2q5 -5 4.5 -10.5t-5.5 -9.5l-96 -82q-5 -5 -11 -5.5 t-11 4.5l-63 50q-26 19 -26 53v255z" />
<glyph unicode="8" horiz-adv-x="380" d="M309 365q10 -10 15 -19t5 -21v-179q0 -6 -6 -12l-148 -124q-5 -5 -12.5 -9t-15.5 3l-63 50q-25 19 -25 53v167q0 9 5 13l56 47l-49 39q-25 20 -25 53v156q0 8 5 12l162 136q5 4 11 3.5t10 -5.5q18 -16 31 -28q11 -11 20.5 -19t10.5 -8q19 -16 19 -40v-167q0 -8 -5 -12 l-51 -43q6 -6 14.5 -14t16.5 -15t13.5 -12zM196 397l18 16v1v186q0 7 -7 14l-44 34q-13 -12 -14 -12q-2 -2 -2 -1v-185q0 -8 5 -13zM227 94v1v197q0 10 -7 14l-44 35l-16 -14v-197q0 -8 6 -12l43 -40z" />
<glyph unicode="9" horiz-adv-x="375" d="M61 344q-19 16 -19 40v202q0 8 5 12l153 129q12 12 26 0l73 -59q26 -20 26 -54v-465q0 -3 -1 -6q-1 -6 -10 -13l-151 -127q-11 -8 -21 2l-46 42q-5 5 -5 12t5 12l47 42q12 10 22 0l38 -36l21 17v260l-80 -67q-5 -4 -11 -3.5t-10 5.5q-18 15 -31 27q-6 5 -11 10t-10 9 t-10 9zM224 392v199q0 7 -3 9l-62 50l-16 -14v-222q0 -5 7 -10l44 -35z" />
<glyph unicode=":" horiz-adv-x="143" d="M16 340q-5 5 -4.5 10.5t5.5 10.5l47 43q5 4 11 4t10 -5l43 -48q10 -10 -1 -21l-47 -43q-5 -4 -11 -4t-10 5zM128 133q10 -10 -1 -21l-47 -43q-5 -5 -11 -4.5t-10 5.5l-43 48q-5 5 -4.5 10.5t5.5 10.5l47 43q5 4 11 4t10 -5z" />
<glyph unicode=";" horiz-adv-x="157" d="M22 341q-5 5 -4.5 10.5t5.5 10.5l47 43q5 4 11 4t10 -5l43 -48q10 -10 -1 -21l-47 -43q-5 -4 -11 -4t-10 5zM58 28q-7 -6 -13 -4t-9 6q-7 11 3 19q7 7 9.5 13.5t0.5 14.5t-8.5 18t-18.5 24q-5 5 -4.5 10.5t5.5 10.5l47 43q5 4 11 4t10 -5l35 -38q9 -10 9.5 -21.5 t-3.5 -23t-11 -20t-12 -12.5z" />
<glyph unicode="&#x3c;" horiz-adv-x="347" d="M293 79q5 -5 5 -12.5t-5 -12.5l-42 -34q-11 -7 -21 1q-50 43 -84.5 73.5t-57 50t-35.5 30.5t-19 16.5t-7 7l-1 1.5q-5 4 -4.5 9.5t5.5 10.5l248 228q11 9 20 -1t-1 -20l-183 -168q-5 -5 -4 -11.5t6 -11.5z" />
<glyph unicode="=" horiz-adv-x="475" d="M396 108q-2 -3 -6.5 -6.5t-16.5 -3.5h-340q-11 0 -15 8.5t3 16.5l51 59q2 2 7 5.5t13 3.5h341q10 0 14 -8.5t-3 -16.5zM396 278q-2 -3 -6.5 -6.5t-16.5 -3.5h-340q-11 0 -15 8.5t3 16.5l51 59q2 2 7 5.5t13 3.5h341q10 0 14 -8.5t-3 -16.5z" />
<glyph unicode="&#x3e;" horiz-adv-x="346" d="M45 388q-6 5 -6 12.5t6 12.5l42 34q10 9 21 0l204 -179q9 -11 -1 -20l-248 -228q-5 -5 -10.5 -4.5t-9.5 4.5q-9 11 1 20l183 168q5 5 4 12t-6 11z" />
<glyph unicode="?" horiz-adv-x="330" d="M189 65q4 -5 3.5 -11t-5.5 -10l-48 -41q-5 -4 -11 -3.5t-10 5.5l-41 49q-10 10 2 21l48 41q5 4 11 3.5t10 -5.5zM275 662q16 -18 16 -41v-149q0 -5 -1 -6l-4 -4l-106 -90v-149q0 -6 -6 -12l-63 -52q-8 -6 -16.5 -2t-8.5 14v151q0 7 6 12l106 90v178q0 5 -3 8l-42 39 l-42 -36v-80q0 -6 -6 -12l-46 -38q-8 -6 -17 -2t-9 15v84q0 6 6 11l156 130q5 4 10.5 3.5t8.5 -3.5l8 -8l6 -6t14 -13.5t33 -31.5z" />
<glyph unicode="@" horiz-adv-x="784" d="M518 378q31 -25 31 -66v-153q0 -9 7 -15l31 -30q21 37 33.5 71t12.5 69q0 69 -39 128.5t-106 94.5q-86 42 -157 31.5t-121 -54t-74.5 -110.5t-17.5 -137.5t49.5 -135t127.5 -103.5q38 -18 81 -29t87.5 -11.5t87 11t80.5 40.5q5 4 12 1.5t7 -10.5q0 -9 -15.5 -23 t-36.5 -28.5t-41 -26t-29 -15.5q-73 -29 -150 -29q-95 0 -161 31.5t-106 82.5t-55 117t-7 134t38 134t80 117t118.5 82.5t153.5 31.5q55 0 108.5 -19.5t94.5 -55t66.5 -85t25.5 -109.5q0 -65 -36 -125q-11 -18 -30 -41t-41 -46.5t-45 -45.5t-41 -38q-6 -6 -15 -6.5t-15 5.5 l-61 57l-13 14l-92 -77q-5 -5 -13.5 -4t-13.5 7l-61 60q-28 25 -28 62v123v1q0 10 7 14l193 163q10 7 21 0q0 -1 1 -1t1 -0.5t1 -0.5zM422 282q0 9 -8 17l-43 34l-15 -12v-162q0 -9 7 -15l41 -39l18 16v161z" />
<glyph unicode="A" horiz-adv-x="415" d="M388 85q7 -5 7 -13.5t-6 -14.5l-59 -50q-6 -6 -14 -6.5t-14 5.5l-58 52q-8 6 -13 15q-5 8 -8.5 18.5t-3.5 25.5v118h-62v-144q0 -8 -4 -16q-2 -4 -4 -6l-77 -64q-9 -8 -21.5 -3t-12.5 19v549q0 8 6 13l181 153q10 7 19 1q1 0 2.5 -1.5t7.5 -6.5t18.5 -15t35.5 -29 q30 -24 30 -62v-480q0 -9 6 -15zM219 329v266q0 10 -8 16l-40 32l-14 -12v-302h62z" />
<glyph unicode="B" horiz-adv-x="383" d="M353 496q0 -7 -7 -14l-77 -66q8 -7 18.5 -16.5t20 -18t16.5 -14.5l7 -6q22 -19 22 -47v-140q0 -9 -7 -15l-182 -154q-6 -5 -13.5 -5t-13.5 5q-15 11 -32 25t-32 27q-18 15 -35 30q-6 6 -6 11v452q0 11 4 17t7 8l181 152q5 5 13.5 4.5t14.5 -5.5l79 -67q22 -19 22 -48 v-115zM233 571q0 10 -9 17l-52 42l-19 -17v-247q8 7 21.5 19t26.5 23q15 13 32 27v136zM233 270q0 10 -9 17l-52 46l-19 -17v-161q0 -10 7 -16l50 -46l23 19v158z" />
<glyph unicode="C" horiz-adv-x="381" d="M348 174q0 -8 -7 -14l-182 -154q-6 -5 -13.5 -6t-13.5 5l-74 58q-16 12 -23.5 29t-7.5 34v428q0 9 7 16l192 161q6 5 13.5 4t11.5 -6q21 -19 37 -33q14 -13 25 -23t12 -10q23 -18 23 -48v-111q0 -6 -1 -10t-3 -7q-2 -4 -3 -5l-78 -63q-12 -11 -23.5 -6.5t-11.5 22.5v141 q0 10 -9 17l-53 41l-19 -16v-463q0 -10 7 -15l51 -47q8 7 13 11t7 6l3 2v133q0 8 4 16q2 4 4 6l84 68q10 8 19 2t9 -21v-142z" />
<glyph unicode="D" horiz-adv-x="416" d="M268 158v409q0 9 -7 15l-35 32h-170q-13 0 -17 8.5t4 18.5l101 85q5 3 8 5t14 2h111q10 0 15 -7q3 -4 15 -14.5t25 -22.5q15 -14 34 -30q23 -18 23 -48v-465q0 -8 -7 -14l-127 -122q-4 -3 -9 -6.5t-24 -3.5h-166q-18 0 -18 17v419q0 15 4.5 21t8.5 9l74 61q10 8 21 2.5 t11 -17.5v-393h70z" />
<glyph unicode="E" horiz-adv-x="419" d="M150 608v-242h137q13 0 18.5 -11.5t-2.5 -20.5l-88 -75q-8 -7 -14.5 -10t-19.5 -3h-31v-127h191q13 0 18 -11t-3 -21l-87 -74q-9 -7 -16.5 -10t-20.5 -3h-182q-8 0 -13.5 5.5t-5.5 13.5v533q0 11 4 17t7 8l173 147q3 3 8.5 7t16.5 4h136q13 0 18 -11t-3 -21l-87 -74 q-9 -8 -16.5 -10.5t-20.5 -2.5h-108z" />
<glyph unicode="F" horiz-adv-x="418" d="M153 607v-241h139q13 0 18 -11.5t-3 -20.5l-87 -75q-9 -7 -16.5 -10t-20.5 -3h-30v-149q0 -16 -3.5 -21t-9.5 -10l-74 -61q-10 -8 -21 -3t-11 18v532q0 11 4 17t7 8l174 147q3 3 9 7t17 4h135q12 0 17.5 -11t-2.5 -21l-88 -74q-9 -8 -16.5 -10.5t-20.5 -2.5h-107z" />
<glyph unicode="G" horiz-adv-x="432" d="M415 366q13 0 19 -11.5t-4 -20.5l-62 -54q-5 -4 -8.5 -7.5t-10.5 -3.5v-95q0 -8 -7 -14l-182 -154q-6 -5 -13.5 -6t-13.5 5l-74 58q-16 12 -23.5 28.5t-7.5 34.5v428q0 9 7 16l192 161q6 5 13 4t12 -6q20 -19 37 -33q14 -13 25.5 -23t12.5 -10q22 -19 22 -48v-79 q0 -6 -1 -10t-3 -7q-2 -4 -3 -5l-78 -65q-9 -8 -22 -3t-13 19v110q0 11 -9 18l-52 42l-20 -17v-463q0 -10 8 -15l50 -47l22 19v155h-31q-13 0 -18 11.5t3 21.5l66 55q4 3 10.5 7t17.5 4h139v0z" />
<glyph unicode="H" horiz-adv-x="411" d="M338 729q10 8 21.5 3t11.5 -18v-619q0 -11 -4 -16.5t-8 -8.5l-75 -65q-10 -9 -21.5 -3.5t-11.5 17.5v225h-94v-149q0 -11 -4 -16.5t-7 -8.5l-76 -65q-10 -9 -21.5 -3.5t-11.5 17.5v619q0 11 4 17t8 9l75 65q10 8 21.5 3t11.5 -18v-350h94v274q0 11 4 17t8 9l75 65v0z" />
<glyph unicode="I" horiz-adv-x="278" d="M259 152q4 -5 3.5 -11t-5.5 -11l-149 -125q-10 -9 -21 -3.5t-11 17.5v594l-41 -35q-5 -3 -10.5 -3t-10.5 5q-4 5 -3.5 11t5.5 11l147 125q10 8 21 3t11 -18v-594l43 36q11 8 21 -2z" />
<glyph unicode="J" horiz-adv-x="355" d="M280 727q10 8 21 3t11 -18v-551q0 -11 -4 -17t-7 -9l-157 -132q-4 -2 -10.5 -3t-10.5 3l-71 54q-20 15 -20 40v67q0 8 7 13l68 59q8 7 17.5 2.5t9.5 -15.5v-93q0 -9 6 -13l46 -39l6 5v531l-40 -33q-5 -3 -10.5 -2.5t-10.5 5.5q-4 5 -3.5 11t5.5 10l147 122v0z" />
<glyph unicode="K" horiz-adv-x="475" d="M439 86q7 -5 7 -13.5t-5 -15.5l-62 -50q-6 -6 -14.5 -6.5t-14.5 5.5l-71 60q-8 6 -13 15q-5 8 -9 18.5t-4 25.5v157q-2 8 -7 12l-51 43l-22 -18v-223q0 -16 -5 -21.5t-8 -8.5l-75 -61q-9 -8 -20.5 -3t-11.5 18v553q0 10 -7 16l-68 54q-5 5 -8 10q-2 5 -1.5 11t8.5 14 l51 45q7 7 12.5 8.5t10.5 0.5t9 -4l82 -63q10 -8 20.5 -18t10.5 -25v-252l80 66v179q0 14 4 25t9 19q5 9 13 15l59 54q6 6 14.5 5.5t14.5 -6.5l63 -53q6 -7 6 -15.5t-7 -14.5l-48 -41q-7 -7 -7 -15v-98q0 -8 -7 -15l-71 -57q8 -7 17.5 -15t18 -15.5t14.5 -12.5l6 -5 q23 -17 23 -47v-172q0 -8 7 -15l57 -50v0z" />
<glyph unicode="L" horiz-adv-x="471" d="M476 141q4 -7 1.5 -14.5t-8.5 -12.5l-127 -107q-4 -3 -7 -5t-9 -2h-279l-28 -23q-7 -3 -15 -1.5t-12 8.5q-4 8 -2 15.5t9 12.5l116 96h1q1 3 6 6v1v455q0 15 4.5 21t8.5 9l156 131q4 4 10.5 4t10.5 -4l71 -60q20 -14 20 -40v-20q0 -9 -6 -13l-69 -65q-8 -7 -17.5 -2.5 t-9.5 15.5v58q0 8 -6 13l-46 39l-6 -6v-530h171l34 28q6 5 14.5 3t13.5 -10z" />
<glyph unicode="M" horiz-adv-x="704" d="M671 86q6 -5 6.5 -13.5t-5.5 -14.5l-63 -51q-6 -6 -14.5 -6.5t-14.5 5.5l-62 52q-8 6 -13 13q-5 6 -8.5 14t-3.5 19v467q0 10 -8 16q-23 18 -36 28.5t-19 15.5q-7 6 -9 8l-23 -19q3 -11 3 -20v-509q0 -8 -4 -16q-2 -4 -4 -6l-77 -64q-5 -5 -11.5 -5t-11.5 2q-12 5 -12 18 l1 551q0 10 -8 16q-23 18 -36 28.5t-19 15.5q-7 6 -9 8l-22 -19v-524q0 -16 -5 -21.5t-8 -8.5l-75 -61q-10 -8 -21.5 -3t-11.5 18l2 550q0 11 -8 17l-70 57q-5 5 -8 10q-2 5 -1.5 11t8.5 14l57 47q5 5 10.5 6.5t10.5 0.5t10 -4l81 -69q3 -2 5.5 -4.5l4.5 -4.5l89 75 q5 5 13 7t16 -4l83 -66q6 -5 11 -11l88 74q5 5 13 6.5t16 -3.5l83 -66q15 -11 23 -28t8 -35v-457q0 -8 7 -15l52 -42v0z" />
<glyph unicode="N" horiz-adv-x="504" d="M464 87q6 -6 6 -14.5t-5 -14.5l-63 -51q-6 -6 -14 -6.5t-14 5.5l-62 52q-8 5 -13 13q-5 7 -8.5 16t-3.5 21v455q0 5 -2 11.5t-6 9.5l-60 51q-1 1 -2 1.5t-2 2.5l-22 -19v-524q0 -16 -4.5 -21.5t-8.5 -8.5l-74 -61q-10 -8 -21 -3t-11 18v549q0 11 -8 17l-70 58q-5 5 -8 10 q-2 5 -1.5 11t8.5 14l57 48q5 5 10.5 6.5t9.5 0.5t8 -4l83 -65q3 -3 6.5 -6t6.5 -7l88 74q15 13 29 3l83 -70q30 -24 30 -63v-451q0 -8 2 -11.5t4 -5.5l52 -41v0z" />
<glyph unicode="O" horiz-adv-x="376" d="M25 553q0 9 7 16l192 161q6 5 13.5 4t11.5 -6q20 -18 37 -31q14 -12 25.5 -21.5t12.5 -9.5q22 -19 22 -48v-445q0 -8 -7 -14l-182 -154q-6 -5 -13.5 -6t-13.5 5l-74 61q-16 11 -23.5 28t-7.5 35v425zM206 95q16 13 18 15l1 1v461q0 11 -8 17l-52 45l-20 -17v-462 q0 -10 8 -16z" />
<glyph unicode="P" horiz-adv-x="409" d="M348 664q11 -9 17 -21.5t6 -26.5v-184q0 -8 -7 -15l-195 -164v-157q0 -16 -5 -21.5t-8 -8.5l-75 -61q-9 -8 -20.5 -3t-11.5 18v526q0 15 11 26l189 157q5 5 12.5 4t12.5 -7q21 -18 37 -31q14 -12 25 -21.5t12 -9.5zM250 571q0 5 -2.5 9.5t-5.5 7.5l-53 44l-19 -17v-310 q8 7 22 18.5t27 22.5q15 12 31 26v199z" />
<glyph unicode="Q" horiz-adv-x="426" d="M66 66q-16 11 -23.5 28t-7.5 35v425q0 9 7 16l192 161q5 5 12.5 4t12.5 -6q21 -18 37 -31q14 -12 25 -21.5t12 -9.5q23 -18 23 -48v-445q0 -8 -7 -14l-182 -154q-6 -5 -13.5 -6t-13.5 5zM155 156q0 -9 7 -16l54 -44q16 13 18 15l1 1v461q0 11 -8 17l-53 45l-19 -17v-462z M358 -23q13 0 18.5 -11.5t-2.5 -20.5l-90 -74q-8 -5 -12.5 -9.5t-24.5 -4.5h-203q-12 0 -17.5 11.5t2.5 21.5l90 74q8 5 12.5 9t24.5 4h202z" />
<glyph unicode="R" horiz-adv-x="449" d="M415 85q6 -6 6.5 -14.5t-5.5 -14.5l-59 -50q-6 -6 -14.5 -6t-14.5 5l-57 53q-8 6 -13 15q-5 8 -8.5 18.5t-3.5 24.5v189q0 10 -8 16l-37 30l-39 -34v-221q0 -16 -5 -21.5t-8 -8.5l-75 -61q-9 -8 -20.5 -3t-11.5 18v532q0 8 7 15q1 1 4.5 4t21.5 18.5t57 48t110 91.5 q5 5 12.5 4t12.5 -7q21 -18 37 -31q14 -12 25 -21.5t12 -9.5q23 -18 23 -48v-120q0 -9 -7 -14l-63 -53l41 -33q30 -24 30 -62v-192q0 -10 6 -14zM182 632l-19 -17v-244l80 67v132q0 11 -8 17z" />
<glyph unicode="S" horiz-adv-x="356" d="M320 154q0 -3 -1 -7t-4 -6l-162 -137q-5 -3 -10.5 -4t-10.5 4l-71 54q-19 16 -19 40v92q0 8 5 13l69 58q8 6 17.5 2t9.5 -15v-118q0 -8 6 -12l46 -39l6 5v165q0 10 -8 16l-121 102q-30 24 -30 63v151q0 9 5 14l161 137q3 3 10 3.5t11 -3.5l72 -59q19 -16 19 -40v-85 q0 -8 -6 -12l-69 -58q-8 -7 -17.5 -2.5t-9.5 15.5v114q0 8 -6 13l-46 39l-5 -6v-192q0 -11 8 -17l120 -101q31 -23 31 -63v-124z" />
<glyph unicode="T" horiz-adv-x="509" d="M499 757q4 -8 2 -15.5t-9 -12.5l-132 -111q-5 -3 -10 -3h-71v-453q0 -10 8 -16l59 -50l30 24q14 11 26 -3q5 -5 5 -13t-5 -15l-100 -81q-17 -15 -33 -3l-78 65q-15 11 -23 28t-8 35v482h-99l-28 -22q-6 -5 -14.5 -3t-12.5 10q-4 7 -1.5 14.5t8.5 12.5l116 97q3 3 9 7 t17 4h282l34 28q8 5 15.5 3t12.5 -9z" />
<glyph unicode="U" horiz-adv-x="515" d="M479 117q5 -5 5 -13t-5 -15l-99 -81q-3 -3 -7.5 -5.5t-9.5 -2.5q-3 0 -7.5 0.5t-9.5 4.5l-78 65q-3 2 -8 7l-84 -71q-6 -5 -13 -5.5t-14 4.5l-75 58q-31 25 -31 63v505q0 19 4 24t9 13l75 62q10 8 21.5 3t11.5 -18v-560q0 -10 7 -15l48 -46q9 8 14 11t7 5q-3 12 -3 23 v511q0 9 4 17q2 4 4 5l77 64q5 5 11.5 5t11.5 -2t8.5 -7t3.5 -11l-1 -553q0 -10 8 -16l59 -50l31 24q5 5 12.5 4t12.5 -7z" />
<glyph unicode="V" horiz-adv-x="406" d="M335 730q11 8 22 3t11 -18v-541q0 -8 -7 -14l-182 -154q-6 -5 -13.5 -6t-13.5 5l-74 58q-16 12 -23.5 28.5t-7.5 34.5v505q0 19 4 24t9 13l74 62q10 8 21.5 3t11.5 -18v-560q0 -10 7 -15l51 -47l22 19v519q0 19 4 24t9 13l75 62v0z" />
<glyph unicode="W" horiz-adv-x="649" d="M560 723q10 8 21 3t11 -18v-526q0 -11 -4 -17t-7 -8l-178 -150q-7 -7 -17 -7q-7 0 -12 5l-83 65q-4 3 -12 11l-88 -74q-2 -2 -6.5 -4.5t-9.5 -2.5q-6 0 -13 5l-82 65q-15 11 -23 28t-8 35v504q0 9 4 17q2 4 4 5l77 64q5 5 11.5 5t11.5 -2q11 -6 11 -18v-546q0 -11 8 -17 l63 -52l24 20q-3 10 -3 20v504q0 9 4 17q2 4 4 5l77 64q5 5 11.5 5t11.5 -2t8.5 -7t3.5 -11l-1 -546q0 -11 8 -17l64 -51l22 19v519q0 16 5 21.5t8 8.5l74 61v0z" />
<glyph unicode="X" horiz-adv-x="430" d="M143 6q-6 -5 -14 -6t-15 6l-52 44q-11 11 -17 21.5t-6 34.5v124q0 10 6 16l99 83l-49 37q-15 11 -31 27.5t-16 34.5v185q0 8 -6 14q-13 12 -15 14.5t-3 3.5q-5 6 -4 13t6 12l73 61q5 5 13.5 3.5t11.5 -5.5l36 -36q11 -11 12 -25t1 -30v-181q0 -11 7 -15l49 -31v202 q0 8 -4 12l-21 20q-5 6 -4.5 13t6.5 12l72 61q14 12 25 -2l24 -26q21 -21 21 -53v-187q0 -3 -0.5 -6t-5.5 -7l-75 -63l66 -42q14 -11 22 -27t8 -34v-162q0 -7 6 -13l27 -24q5 -5 6 -10t-1 -9q-2 -5 -6 -9l-63 -53q-5 -5 -12.5 -4.5t-13.5 5.5l-49 42q-24 24 -24 56v150 q0 9 -7 15l-53 39h-1v-177q0 -4 1 -10t6 -11l23 -24q14 -15 0 -29l-59 -50v0z" />
<glyph unicode="Y" horiz-adv-x="432" d="M382 161q0 -11 -4 -17t-7 -9l-154 -132q-5 -3 -14.5 -3.5t-13.5 3.5l-109 93q-8 8 -13.5 15.5t-5.5 18.5v15q0 5 1 10.5t8 10.5l84 71q8 7 17 2.5t9 -15.5v-61q0 -7 1.5 -12t9.5 -11l65 -54l6 5v253l-72 -61q-6 -5 -13.5 -5.5t-14.5 4.5l-71 61q-15 12 -23 29t-8 34v223 q0 19 4.5 24t9.5 13l74 62q10 8 21.5 3t11.5 -18v-280q0 -11 7 -15l52 -44q8 6 12 9.5t6 5.5q3 2 3 3v46v76.5t1 130.5q0 7 4 12t8 9l75 62q10 8 21.5 3t11.5 -18v-552z" />
<glyph unicode="Z" horiz-adv-x="428" d="M348 229q10 8 22.5 4.5t12.5 -17.5v-124q0 -6 -1 -10t-3 -7q-2 -4 -4 -5l-77 -65q-11 -9 -23 -2q-12 5 -12 18v83l-123 -98q-7 -5 -15 -5.5t-14 5.5l-51 44q-11 11 -17.5 21.5t-6.5 34.5l1 144q0 11 6 16l207 172v174q0 5 -1 10.5t-6 10.5l-14 15l-157 -128 q-5 -5 -13.5 -4.5t-10.5 1.5q-3 0 -6 3q-2 2 -4 5.5t-2 10.5v105q0 9 4 17q2 4 4 5l81 67q5 5 11.5 5t11.5 -2q9 -5 9 -18v-77l112 92q6 5 14.5 5t14.5 -6l70 -61q12 -10 13.5 -14t1.5 -15v-134q0 -11 -6 -16l-221 -183v-162q0 -5 1 -10.5t5 -10.5l25 -25z" />
<glyph unicode="[" horiz-adv-x="300" d="M139 593v-570h76l17 21q9 11 20 2q10 -9 1 -20l-60 -73q-2 -2 -6 -4.5t-9 -2.5h-116q-6 -1 -11 3t-5 11v650q0 7 5 12l36 43q4 6 12 6h146l18 20q9 11 19 2q11 -9 2 -20l-61 -73q-2 -2 -6 -4.5t-9 -2.5h-69z" />
<glyph unicode="\" horiz-adv-x="382" d="M381 8q2 -3 -1.5 -6t-6.5 0l-61 51q-6 5 -10 10.5t-8 11.5l-346 632q-2 5 2.5 7.5t8.5 0.5l56 -46q13 -11 18 -23z" />
<glyph unicode="]" horiz-adv-x="300" d="M241 670q9 0 12 -4t3 -15v-597q0 -4 -1.5 -6.5t-3.5 -4.5l-77 -90q-2 -2 -6 -4.5t-9 -2.5h-113l-16 -19q-3 -5 -9 -5.5t-10 4.5q-5 3 -5.5 8.5t3.5 10.5l60 73q4 6 13 6h81v568h-104l-16 -20q-2 -4 -8.5 -4.5t-10.5 3.5q-11 9 -2 20l61 73q6 6 12 6h146v0z" />
<glyph unicode="^" horiz-adv-x="422" d="M386 398q3 -2 4 -6.5t-2 -7.5l-46 -52q-2 -2 -4 -3.5t-4 -0.5q-4 0 -12.5 3.5t-19 9.5t-21.5 13.5t-20 15.5q-37 35 -54 81q-32 -51 -62.5 -77.5t-73.5 -43.5q-6 -1 -9 5q-2 7 2 10l23 20q1 1 3.5 2.5t3.5 1.5q15 4 30.5 17t29.5 29.5t25 34t17 31.5q1 0 1 1t1 2t2 3 l47 48q8 8 12 -3q17 -46 52 -80t75 -54z" />
<glyph unicode="_" horiz-adv-x="484" d="M406 -83q-2 -2 -6.5 -6t-16.5 -4h-341q-10 0 -14 9t3 17l51 58q2 3 7 6t13 3h340q10 0 14 -8.5t-2 -16.5l-48 -58v0z" />
<glyph unicode="`" horiz-adv-x="200" d="M50 710q5 6 12.5 6.5t12.5 -4.5l105 -108q9 -9 2 -20q-3 -6 -9.5 -7.5t-12.5 1.5l-131 75q-6 5 -7.5 12t3.5 13l25 32v0z" />
<glyph unicode="a" horiz-adv-x="352" d="M192 446q8 6 16 1l1.5 -1t6.5 -5t16 -12.5t30 -24.5q26 -21 26 -53v-225q0 -9 5 -13l38 -34q5 -5 5 -12t-5 -12l-45 -50q-5 -5 -12 -5t-12 5l-54 49q-4 3 -10 11l-73 -61q-4 -4 -10 -4t-11 5l-50 49q-21 19 -21 49v202v1q0 7 5 11zM187 95q0 2 -0.5 4.5t-0.5 4.5v223 q0 8 -6 13l-34 28l-12 -10v-233q0 -7 5 -12l33 -30z" />
<glyph unicode="b" horiz-adv-x="361" d="M131 727q8 7 17.5 2.5t9.5 -15.5v-325l66 56q10 7 20 0q0 -1 1 -1l60 -48q26 -21 26 -53v-204h-1q0 -7 -5 -11l-148 -124q-4 -5 -10.5 -4t-10.5 6l-73 59q-26 19 -26 55v512l-30 -28q-5 -3 -10.5 -3t-10.5 5q-4 5 -3.5 11t5.5 11zM229 319q0 7 -6 12l-44 36l-21 -18v-207 q0 -8 7 -13l58 -47l6 5v232z" />
<glyph unicode="c" horiz-adv-x="338" d="M287 385q5 -5 5.5 -12t-4.5 -12l-46 -48q-5 -5 -11 -5.5t-11 4.5l-62 53v-232q0 -3 3 -6.5t6 -5.5l50 -42l42 36q12 8 22 -2q8 -12 -2 -22l-105 -88q-5 -3 -10 -3t-15 7l-75 56q-8 7 -13.5 16.5t-5.5 20.5v215q0 3 1.5 7.5t4.5 6.5l137 116q4 3 9 3t9 -2z" />
<glyph unicode="d" horiz-adv-x="372" d="M320 441q22 -20 22 -51v-247q0 -6 -4 -10q-2 -3 -3 -4l-151 -126q-4 -4 -10 -4t-11 5l-69 66q-19 16 -19 40v239q-2 8 5 13l90 76l-184 177q-6 5 -7 13.5t4 13.5l100 84q5 5 11 4.5t10 -5.5q10 -11 -1 -22l-34 -28zM241 367q0 8 -6 13l-42 38l-17 -15v-262q0 -7 5 -12 l51 -47l9 8v277z" />
<glyph unicode="e" horiz-adv-x="342" d="M293 375q5 -5 8.5 -13.5t3.5 -16.5v-59q0 -9 -6 -13l-146 -123v-5q0 -8 6 -14l59 -45l38 32q12 8 22 -2q4 -5 3.5 -11t-5.5 -10l-106 -91q-12 -8 -23 0l-69 55q-26 20 -26 53v205q0 8 7 15l135 112q5 5 11 4.5t11 -5.5zM153 190l51 42v80q0 7 -7 14l-44 39v-175z" />
<glyph unicode="f" horiz-adv-x="340" d="M310 685q5 -5 5 -12t-5 -12l-47 -42q-5 -5 -11 -5t-11 5l-38 36l-20 -17v-191h70q9 0 12 -8.5t-4 -13.5l-78 -59v-289q0 -7 -5 -12l-69 -61q-8 -7 -17.5 -3t-9.5 15v347h-69q-9 0 -12.5 8.5t4.5 13.5l77 59v139q0 2 1 6q2 6 10 13l151 127q10 9 21 -2z" />
<glyph unicode="g" horiz-adv-x="370" d="M153 -160q-5 -5 -11 -4t-10 6l-49 47v1q-9 11 2 20l46 39q4 3 9.5 3.5t9.5 -3.5l43 -37l24 20v116l-54 -44q-5 -4 -10 -4t-9 3l-68 55q-13 10 -19.5 24t-6.5 29v181q0 9 3 14q1 3 3 4l164 136q5 4 11 3.5t10 -5.5l60 -55q17 -15 17 -38v-367q0 -7 -6 -11zM217 88v234 q0 7 -6 12l-37 34l-23 -20v-212q0 -7 7 -13l52 -41z" />
<glyph unicode="h" horiz-adv-x="380" d="M168 368l-10 -8v-287q0 -9 -6 -13l-68 -56q-8 -7 -17.5 -2.5t-9.5 15.5v614l-30 -25q-4 -4 -10 -3.5t-11 5.5t-4 11t6 10l123 100q9 7 18 1.5t9 -14.5v-316l54 45q5 5 11 4t10 -4l61 -48q27 -19 27 -53v-243l15 13q5 5 12.5 3.5t11.5 -9.5q4 -11 -5 -18l-103 -85 q-7 -5 -12 -5q-4 -1 -6 0q-14 0 -14 16v303q0 8 -7 13z" />
<glyph unicode="i" horiz-adv-x="243" d="M176 109q0 -8 6 -12l18 -15l31 27q5 5 11 4t10 -6q5 -5 4 -11t-6 -10l-95 -81q-4 -4 -10 -4q-7 0 -12 5v1l-33 26q-25 19 -25 52v217q0 7 -5 12l-39 44q-4 4 -4 9.5t5 10.5l59 48q2 3 6 4q7 2 13 -3l45 -50q21 -21 21 -49v-219zM59 548q-9 11 2 21l49 41q5 5 11 4t10 -6 l41 -49q5 -5 4.5 -11t-5.5 -10l-49 -41q-5 -5 -11 -4.5t-11 5.5z" />
<glyph unicode="j" horiz-adv-x="227" d="M85 301q0 7 -5 12l-38 44q-5 4 -4.5 9.5t4.5 10.5l59 48q2 3 6 4q7 2 13 -3l45 -50q21 -19 22 -44v-366q0 -8 -6 -12l-131 -109q-6 -4 -10 -4q-7 0 -11 6q-5 5 -4.5 11t5.5 10l55 47v386zM69 547q-4 5 -3.5 10.5t5.5 10.5l49 41q5 5 11 4t10 -6l42 -49q4 -5 3.5 -11 t-5.5 -10l-49 -41q-5 -5 -11 -4.5t-10 5.5z" />
<glyph unicode="k" horiz-adv-x="411" d="M230 264l104 -179l32 27q5 4 11 3.5t10 -5.5q5 -5 4 -11t-6 -10l-101 -85q-6 -5 -13 -3.5t-11 7.5l-96 170v-113q0 -10 -7 -14l-67 -48q-8 -6 -17.5 -1.5t-9.5 15.5v614l-30 -25q-6 -6 -11.5 -4.5t-9.5 6.5q-9 11 2 21q46 37 71 57.5t36.5 30t14 11l2.5 1.5q8 6 17 1.5 t9 -14.5v-324l63 53q8 6 17 1q1 -1 2 -1.5t5.5 -4.5t14 -12.5t27.5 -24.5q9 -8 12 -21t3 -23v-20q0 -7 -1 -9.5t-6 -6.5zM164 352v-104l39 32v52q0 6 -5 11l-21 20z" />
<glyph unicode="l" horiz-adv-x="256" d="M207 81l26 20q5 4 11 3.5t11 -5.5q8 -12 -2 -22l-86 -71q-5 -5 -9 -5.5t-8 0.5t-8 3l-70 55q-26 20 -26 54v545q0 9 3 14q1 3 3 5l66 54q8 7 18.5 3t10.5 -16v-580q0 -9 7 -14z" />
<glyph unicode="m" horiz-adv-x="610" d="M582 131q10 -11 -1 -22l-125 -102q-6 -5 -9 -6t-8 -1q-7 0 -11 5t-4 12v293q0 8 -7 14q-20 15 -30.5 23.5t-15.5 13t-6 5.5l-1 1l-4 -4q6 -12 6 -28v-263q0 -9 -7 -14l-69 -55q-8 -6 -16.5 -1.5t-8.5 14.5v295q0 7 -6 12l-53 42l-4 -4l3.5 -10.5t1.5 -11.5v-268 q0 -8 -7 -13l-69 -56q-8 -5 -16.5 -0.5t-8.5 14.5v295q0 7 -6 12l-45 36l-25 -20q-5 -4 -11 -3.5t-10 5.5q-5 5 -4.5 11t5.5 10l90 74q5 4 11.5 3t8.5 -3l1.5 -1.5t7.5 -6t18.5 -14t34.5 -27.5l2 -1l67 57q10 8 20 0l70 -56l67 57q9 7 18 0l73 -56q26 -20 26 -54v-230l36 29 q5 4 11 3.5t10 -5.5z" />
<glyph unicode="n" horiz-adv-x="420" d="M217 443q4 4 10.5 4t11.5 -3l72 -57q25 -20 25 -53v-227l33 27q12 9 21 -2q10 -11 -1 -22l-129 -107q-8 -5 -16.5 -1t-8.5 15v291q0 8 -6 13q-20 17 -31.5 25.5t-16.5 13.5q-6 5 -7 7l-6 -5q5 -10 5 -25v-262q0 -10 -7 -14l-69 -58q-8 -6 -16.5 -1.5t-8.5 14.5v295 q0 8 -5 12l-26 20q-6 5 -5 11t6 11l53 46q10 8 22 -1l33 -24l67 57v0z" />
<glyph unicode="o" horiz-adv-x="373" d="M57 300q0 7 6 13l161 135q5 4 11 3.5t10 -5.5q18 -16 31 -28q11 -11 20.5 -19t10.5 -8q19 -16 19 -40v-205q0 -8 -6 -12l-152 -129q-5 -4 -11.5 -5t-11.5 4l-62 49q-13 10 -19.5 24t-6.5 29v194zM225 94v224q0 9 -7 14l-44 35l-16 -14v-223q0 -9 6 -13l42 -39z" />
<glyph unicode="p" horiz-adv-x="418" d="M331 387q23 -20 23 -51v-215q0 -7 -5 -12l-126 -105q-5 -5 -12 -4t-12 6l-11 14v-141q0 -8 -7 -13l-68 -53q-8 -6 -17.5 -2t-9.5 15v476q0 2 1 6.5t6 8.5l153 128q5 4 10.5 3.5t9.5 -4.5l1.5 -1t7.5 -6t19 -17t37 -33zM253 314q0 6 -5 13l-45 43l-15 -14v-233l53 -64 l12 10v245z" />
<glyph unicode="q" horiz-adv-x="368" d="M220 -186q-8 -6 -16.5 -2t-8.5 14v220l-49 -42q-4 -4 -10 -4q-2 0 -5 0.5t-7 3.5l-71 57q-25 20 -25 53v195q0 8 5 12l149 125q8 6 18 1l70 -54q26 -20 26 -52v-430l37 31q5 4 11 3.5t10 -5.5q5 -5 4 -11.5t-6 -9.5zM195 85v231q0 7 -6 12l-51 42l-9 -8v-223q0 -10 6 -14 q20 -16 31 -24.5t16 -13t6.5 -5.5l1.5 -1z" />
<glyph unicode="r" horiz-adv-x="369" d="M317 390q10 -9 8 -17q-1 -4 -4 -7l-56 -47q-6 -6 -12.5 -3t-13.5 8l-52 44q2 -6 3.5 -9.5t1.5 -10.5v-276q0 -9 -6 -13l-70 -56q-8 -5 -16.5 -1t-8.5 14v300q0 7 -6 12l-35 31q-5 4 -4 10.5t6 10.5l56 47q10 8 20 0v-1l39 -32l63 53q10 8 21 -1l1 -1l65 -55v0z" />
<glyph unicode="s" horiz-adv-x="359" d="M173 3q-7 -7 -14 -1q-48 35 -73 54t-37 28l-16 12q-4 4 -3.5 10t4.5 10l93 85l-45 32q-25 19 -25 49v43q0 6 3 9l116 112q7 7 15 1l121 -97q10 -9 -1 -20l-89 -81l57 -41q11 -8 18 -21t7 -27v-43q0 -6 -5 -9zM151 184l-35 -32l93 -69v52q0 7 -5 10zM198 266l33 30l-80 62 v-22q0 -26 1.5 -32t3.5 -8z" />
<glyph unicode="t" horiz-adv-x="324" d="M264 77q6 -4 7 -8t0 -7q-1 -4 -4 -8l-50 -50q-3 -3 -10 -4.5t-13 3.5l-74 55q-12 10 -18.5 22t-6.5 31v252h-60q-10 0 -13 8.5t5 14.5l68 58v208q0 8 6 13l69 67q8 7 17 2.5t9 -15.5v-271h61q9 0 11.5 -8.5t-4.5 -14.5l-68 -58v-231q0 -8 7 -13l61 -46v0z" />
<glyph unicode="u" horiz-adv-x="445" d="M172 3l-71 55q-20 15 -20 39v245q0 8 -6 13l-12 11l-19 -16q-5 -5 -11 -4.5t-11 5.5q-8 12 2 22l84 71q10 8 20 0l4 -4q3 -3 9.5 -8.5t18.5 -15.5q23 -21 23 -51v-235q0 -9 6 -13l46 -39l6 5v284q0 7 6 12l70 67q8 6 16.5 2t8.5 -14v-300q0 -6 6 -12l62 -49 q6 -5 8.5 -11.5t-3.5 -12.5l-38 -33l-13 -11q-5 -5 -12 -5q-2 -1 -4 0q-3 0 -7 4l-74 61l-74 -62q-5 -3 -10 -3q-7 0 -11 3z" />
<glyph unicode="v" horiz-adv-x="345" d="M305 138q0 -9 -5 -14l-145 -121q-5 -3 -11 -3t-10 3l-71 55q-19 14 -19 39v268q0 8 6 13l69 65q8 7 17 2.5t9 -15.5v-300q0 -7 6 -13l46 -39l7 6v282q0 7 5 12l71 66q8 7 16.5 2.5t8.5 -14.5v-294z" />
<glyph unicode="w" horiz-adv-x="515" d="M450 445q8 6 16.5 2t8.5 -14v-283q0 -8 -6 -12l-161 -134q-4 -4 -9 -4q-6 0 -11 5l-67 52h-1l-64 -53q-6 -4 -10 -4q-6 0 -11 5l-67 52q-19 14 -19 39v269q0 8 6 14l67 64q9 7 18.5 2.5t9.5 -15.5v-301q0 -8 7 -13l44 -35l2 2q-2 8 -2 13v269q0 7 7 14l67 64q8 7 18 2.5 t10 -15.5v-301q0 -9 6 -13l44 -35l20 17v268q0 6 6 12l71 67v0z" />
<glyph unicode="x" horiz-adv-x="394" d="M317 324q0 -3 -1 -5l-2 -4t-2 -3l-63 -53l56 -36q13 -8 19 -22.5t6 -29.5v-67q0 -7 5 -12l15 -12q8 -10 5 -16q-2 -4 -5 -7l-59 -53q-6 -4 -8 -4q-2 -1 -4 0q-2 0 -5.5 0.5t-7.5 4.5l-26 28q-20 20 -20 48v64q0 7 -7 12l-45 34v-1v-82q0 -3 0.5 -7t4.5 -8l13 -12 q4 -4 5 -11.5t-5 -12.5l-58 -52q-4 -4 -7.5 -4.5t-4.5 -0.5q-5 0 -12 5l-30 27q-20 20 -20 49v44q0 8 6 14l83 71l-41 31q-13 10 -26.5 23.5t-13.5 29.5v51q0 6 -5 11l-14 15q-5 5 -4.5 11t5.5 11l61 53q12 8 22 -2l31 -31q9 -9 9.5 -21t0.5 -26v-48q0 -7 7 -12l41 -26v65 q0 6 -4 10l-17 16q-8 12 2 22l61 53q5 4 11 3.5t10 -5.5l20 -20q18 -18 18 -46v-54v0z" />
<glyph unicode="y" horiz-adv-x="397" d="M312 447q8 7 18 2t10 -16v-456q0 -9 -6 -13l-187 -158q-5 -4 -11 -3.5t-10 5.5l-42 49q-8 12 2 22q18 15 28 23.5t15 12.5t6 5l1 1q5 4 11.5 3t9.5 -6l33 -39l48 40v123l-46 -39q-5 -3 -10 -3q-6 0 -10 4l-75 58q-24 19 -24 49v239q0 8 -4 12l-17 18q-9 9 0 17l58 50 q9 9 18 0l28 -28q19 -19 19 -45v-238q0 -7 4 -10l58 -45l1 1v294q0 8 7 13l67 58v0z" />
<glyph unicode="z" horiz-adv-x="401" d="M356 321q6 -6 4.5 -14t-8.5 -13l-61 -51l37 -39q14 -14 14 -33v-236q0 -5 -0.5 -8t-4.5 -8l-145 -122q-11 -9 -21 0l-93 90l-25 -22q-5 -5 -11 -4t-11 6q-4 5 -3.5 11t5.5 10l91 77q5 4 11.5 3t9.5 -4l3.5 -3.5t10 -9.5t26.5 -25.5t52 -51.5l4 3v264q0 6 -4 10l-36 36 q-5 5 -4 11t6 11l65 55l-93 90l-82 -69q-5 -5 -11.5 -4t-10.5 6t-3.5 11t5.5 10l144 121q14 12 26 0l113 -108v0z" />
<glyph unicode="{" horiz-adv-x="425" d="M213 592v-569h76l17 21q9 11 20 2q5 -4 5.5 -9.5t-4.5 -10.5l-61 -73q-2 -2 -6 -4.5t-9 -2.5h-115q-6 -1 -11 3t-5 11v284h-97l-19 -23q-4 -4 -9.5 -5t-10.5 3q-10 9 -1 20l75 89q2 3 7 6t13 3h42v273q0 7 5 12l36 43q5 5 12 5h146l18 21q4 5 9.5 5.5t9.5 -3.5 q11 -9 2 -20l-61 -73q-2 -2 -6 -5t-9 -3h-69z" />
<glyph unicode="|" horiz-adv-x="106" d="M95 60l-64 -56q-8 -6 -16.5 -2t-8.5 14v647q0 7 6 12l64 51q7 6 15 2t8 -13v-643q0 -8 -4 -12z" />
<glyph unicode="}" horiz-adv-x="434" d="M434 360q5 -4 5 -9.5t-3 -10.5l-72 -87q-2 -3 -6.5 -6.5t-16.5 -3.5h-42v-187q0 -4 -1.5 -8t-3.5 -6l-72 -85l-6 -6l-6 -4t-8 -2h-113l-16 -19q-4 -4 -9.5 -5t-10.5 3q-4 4 -4.5 9.5t3.5 10.5l60 73q5 5 13 5h80v569h-101l-18 -20q-4 -4 -9.5 -5t-10.5 4q-11 9 -1 19 l60 74q7 5 13 5h146q9 0 12 -6t3 -14v-312h97l18 22q9 11 20 2z" />
<glyph unicode="~" horiz-adv-x="630" d="M193 346q29 0 61.5 -13.5t82.5 -40.5q70 -38 111 -51q41 -10 76 2t67 35q9 7 16 -1q9 -9 -1 -18q-21 -19 -41 -37.5t-41.5 -33.5t-44.5 -24t-49 -9q-35 0 -66 10t-60 24.5t-57.5 30.5t-57.5 29q-25 11 -54 15.5t-53 -6.5q-13 -5 -25.5 -13.5t-21.5 -16.5q-8 -7 -18 3 q-8 8 1 16q18 18 38 35.5t42.5 31.5t46.5 23t48 9z" />
<glyph unicode="&#xa1;" horiz-adv-x="214" d="M47 423q-8 12 2 22l49 41q5 4 11 3.5t10 -5.5l40 -48q5 -5 4.5 -11t-5.5 -10l-48 -42q-5 -5 -11 -4.5t-10 5.5zM130 298q8 7 16.5 3t8.5 -14v-460q0 -8 -5 -11l-63 -55q-8 -7 -17 -2.5t-9 14.5v461q0 9 6 12z" />
<glyph unicode="&#xa2;" horiz-adv-x="385" d="M355 497q4 -5 3.5 -11t-5.5 -10l-50 -42q-11 -9 -20 2l-71 83v-317l43 -37l43 36q5 5 11 4t11 -6q4 -5 3.5 -11t-5.5 -10l-105 -88q-1 0 -1 -1v-80q0 -14 -14 -14t-14 14v88l-112 85q-8 8 -13.5 17.5t-5.5 20.5v213q0 9 5 15l126 107v113q0 14 14 14t14 -14v-89 q20 17 24.5 20.5t6.5 5.5q5 4 11 3.5t11 -5.5zM184 225v291l-28 -25v-238q0 -4 3 -7t6 -5z" />
<glyph unicode="&#xa3;" horiz-adv-x="512" d="M470 89q5 -7 -2 -12l-88 -74q-5 -5 -11 -1q-23 17 -44.5 26.5t-40.5 14.5t-34.5 6t-25.5 1q-50 0 -96 -12.5t-81 -35.5q-7 -4 -12 3t1 12q18 16 34.5 32.5t29 34t19.5 36.5t7 41v124h-101q-10 0 -14 9t2 17l51 59q2 2 7 5t13 3h42v209q0 3 1 7t4 6l145 121q4 3 10 3.5 t11 -3.5l71 -54q19 -16 19 -40v-67q0 -8 -6 -12l-69 -66q-8 -6 -17.5 -2t-9.5 15v100q0 7 -5 12l-46 39l-7 -5v-263h139q10 0 14 -8.5t-2 -16.5l-48 -58q-2 -2 -6.5 -6t-16.5 -4h-80v-153q55 15 109 15q10 0 26 -2.5t35 -8.5t38 -17.5t35 -29.5z" />
<glyph unicode="&#xa4;" horiz-adv-x="510" d="M459 161q7 -7 6.5 -16.5t-8.5 -15.5l-41 -31q-8 -7 -17 -5t-15 10l-44 77l-111 -94q-5 -5 -11.5 -5.5t-11.5 4.5l-42 34l-92 -52q-6 -3 -12.5 -1.5t-9.5 7.5q-7 11 2 20l70 71q-2 6 -3 11.5t-1 11.5v176l-75 76q-6 7 -5.5 16.5t8.5 15.5l44 37q8 7 17.5 5t14.5 -10 l45 -76l118 99q5 4 11 3.5t10 -5.5l22 -20q9 -8 18.5 -16.5t15.5 -13.5l82 47q6 3 12.5 1.5t9.5 -7.5q7 -11 -2 -20l-77 -80v-184zM286 174v1v221q0 7 -7 14l-44 34l-16 -13v-220q0 -7 6 -13l43 -39z" />
<glyph unicode="&#xa5;" horiz-adv-x="672" d="M659 694q7 5 15.5 -2t1.5 -16q-79 -103 -157 -103q-33 0 -64 18l-106 -188v-3q0 -3 1 -5h171q9 0 13.5 -8.5t-2.5 -16.5l-34 -38q-2 -2 -6.5 -6t-16.5 -4h-112q2 -14 3.5 -27t3.5 -27h151q9 0 13.5 -8.5t-2.5 -16.5l-34 -38q-2 -2 -6.5 -6t-16.5 -4h-95q0 -2 0.5 -3.5 t0.5 -2.5v-2l3 -24q1 -10 1.5 -17t0.5 -12q37 -12 78 -45q4 -3 4 -8t-4 -8l-84 -70q-3 -3 -7.5 -3t-7.5 3q-51 40 -106 43t-117 -26q-7 -6 -13 2q-3 3 -2.5 7.5t3.5 7.5q75 77 147 98q-1 8 -2.5 20.5t-4.5 32.5l-1 7h-135q-10 0 -14 9t3 16l37 40q2 2 7 5t13 3h77l-2 10 q-2 11 -3.5 20t-3.5 16l-2 8h-112q-10 0 -14 8.5t3 16.5l37 39q2 3 7 6t13 3h45l-2 7q-17 54 -36.5 101.5t-42.5 78.5t-49.5 42t-57.5 -7q-6 -3 -13 -0.5t-10 9.5q-5 12 5 20l103 82l2 1q3 1 13 1q71 0 122 -82q50 -80 82 -216l157 287q2 3 5 3.5t5 -2.5q14 -20 39.5 -31 t53.5 -11q36 0 58 16z" />
<glyph unicode="&#xa6;" horiz-adv-x="130" d="M84 707q8 7 16.5 3t8.5 -14v-235q0 -8 -5 -11l-63 -55q-8 -6 -17 -2t-9 14v236q0 7 6 12zM84 323q8 7 16.5 3t8.5 -14v-235q0 -8 -5 -11l-63 -55q-8 -7 -17 -2.5t-9 14.5v236q0 7 6 12z" />
<glyph unicode="&#xa8;" horiz-adv-x="332" d="M133 670q8 -12 -2 -22l-49 -41q-5 -4 -11 -3.5t-10 5.5l-40 48q-5 5 -4.5 11t5.5 10l48 42q5 5 11 4.5t10 -5.5zM309 670q8 -12 -2 -22l-49 -41q-5 -4 -11 -3.5t-10 5.5l-40 48q-5 5 -4.5 11t5.5 10l48 42q5 5 11 4.5t10 -5.5z" />
<glyph unicode="&#xa9;" horiz-adv-x="599" d="M403 589q5 -5 5.5 -10.5t-4.5 -10.5l-40 -43q-11 -9 -20 -1l-54 47v-204q0 -3 2.5 -6t4.5 -5l44 -37l38 31q10 8 19 -1q7 -11 -2 -19l-92 -77q-6 -4 -9 -4t-5.5 2t-7.5 4l-67 50q-7 6 -11.5 14.5t-4.5 18.5v188v1q-2 8 4 12l122 102q7 7 15 1zM504 647q40 -40 61 -91.5 t21 -108.5t-21 -108.5t-61 -91.5q-41 -41 -92.5 -62t-108.5 -21t-108 21t-92 62q-40 40 -61.5 91.5t-21.5 108.5t21.5 108.5t61.5 91.5q41 40 92 61.5t108 21.5t108.5 -21.5t92.5 -61.5zM466 284q68 68 68 163q0 46 -17.5 88t-50.5 74q-32 33 -74 50.5t-89 17.5 q-46 0 -88 -17.5t-74 -50.5q-33 -32 -50.5 -74t-17.5 -88q0 -95 68 -163q32 -33 74 -50t88 -17q47 0 89 17t74 50z" />
<glyph unicode="&#xab;" horiz-adv-x="522" d="M293 64q5 -5 5 -12.5t-5 -12.5l-42 -34q-11 -7 -21 1q-50 43 -84.5 73.5t-57 50t-35.5 30.5t-19 16.5t-7 7l-1 1.5q-5 4 -4.5 9.5t5.5 10.5l248 228q11 9 20 -1t-1 -20l-183 -168q-5 -5 -4 -11.5t6 -11.5zM533 64q5 -5 5 -12.5t-5 -12.5l-42 -34q-11 -7 -21 1 q-50 43 -84.5 73.5t-57 50t-35.5 30.5t-19 16.5t-7 7l-1 1.5q-5 4 -4.5 9.5t5.5 10.5l248 228q11 9 20 -1t-1 -20l-183 -168q-5 -5 -4 -11.5t6 -11.5z" />
<glyph unicode="&#xad;" horiz-adv-x="401" d="M334 223q-2 -2 -6.5 -6t-16.5 -4h-280q-10 0 -14 9t3 17l51 59q2 2 7 5.5t13 3.5h279q11 0 15 -9t-3 -17l-48 -58v0z" />
<glyph unicode="&#xae;" horiz-adv-x="483" d="M243 718q43 0 81.5 -17t67 -45.5t45.5 -67t17 -81.5q0 -44 -17 -82.5t-45.5 -67.5t-67 -45.5t-81.5 -16.5q-44 0 -82.5 16.5t-67.5 45.5t-45.5 67.5t-16.5 82.5q0 43 16.5 81.5t45.5 67t67.5 45.5t82.5 17zM243 315q38 0 72.5 15t61 41t42 61t15.5 75q0 37 -15 71.5 t-41.5 61t-61 42.5t-73.5 16q-38 0 -72.5 -15t-61 -41t-42.5 -60.5t-16 -74.5t15 -75t41 -61t61 -41t75 -15zM148 541q-4 -4 -8 1l-15 18q-3 5 1 8l18 15q2 2 4 2t3 -2l16 -19q4 -4 -1 -7zM368 423q3 3 7 0q4 -4 0 -8l-27 -22q-12 -9 -21.5 -7.5t-17 9t-14.5 20t-15 27.5 l-20 33q-8 11 -15 11q-2 0 -3.5 -1t-9.5 -7v-52q8 -4 16 -12l1 1q3 3 8 -1q2 -4 -1 -7l-24 -20q-4 -2 -6 -1q-17 8 -23.5 11t-14.5 3q-7 0 -13 -1q-12 -2 -21 -9q-6 -2 -8 1q-4 4 1 7l19 16q3 3 6 5q2 2 4.5 3t4.5 2v46l-15 17q-5 5 0 8l15 13v45q0 3 2 5l64 52l-10 7 q-12 -11 -18.5 -16t-10.5 -9q-11 -8 -21 -8q-11 0 -20.5 3.5t-20.5 5.5t-18.5 0.5t-13.5 -12.5q-6 -9 -6 -19t5 -16t12 -12q4 -5 1 -8t-8 0q-8 8 -10 10.5t-4 4.5q-5 11 -5 24.5t7 26.5q18 29 55 29q5 0 13 -2l16 -4t15 -3t10 2l36 30q5 3 8 0l48 -35q9 -9 9 -19v-41 q0 -4 -3 -5l-35 -27q7 -2 11.5 -7.5t7.5 -9.5l28 -53q4 -7 7.5 -14.5t8 -12t11 -5t16.5 7.5zM222 470l-12 -10v-29q8 0 12 -1v40zM222 576l-12 -10v-92l12 9v93zM281 532v50q0 2 -3 4l-22 17l-24 -19v-92z" />
<glyph unicode="&#xaf;" horiz-adv-x="323" d="M252 660q-2 -3 -6.5 -7t-16.5 -4h-199q-10 0 -14 9t3 17l43 46q2 2 7 5.5t13 3.5h198q11 0 15 -9t-3 -17l-40 -44v0z" />
<glyph unicode="&#xb0;" horiz-adv-x="271" d="M236 569q0 -13 -13.5 -30t-32 -33.5t-37.5 -30.5t-29 -21q-32 -20 -64 4q-22 15 -27 36.5t-5 53.5v32q0 16 6.5 32t32.5 35q17 12 31 23t33 22q26 15 51 7.5t42 -33.5q9 -12 10.5 -28.5t1.5 -36.5v-32zM157 513v75q0 13 -3 20.5t-9.5 12t-16 7t-21.5 6.5v-79 q0 -13 2.5 -19.5t8.5 -10t15 -6t22 -6.5h2z" />
<glyph unicode="&#xb1;" horiz-adv-x="571" d="M531 320q10 0 14.5 -8.5t-2.5 -16.5l-48 -58q-2 -2 -6.5 -6t-16.5 -4h-131v-132q0 -8 -3.5 -13t-5.5 -7l-59 -50q-8 -7 -17 -3t-9 14v191h-190q-11 0 -14.5 8.5t2.5 16.5l51 59q2 3 7 6t13 3h131v131q0 12 4 16.5t7 6.5l57 49q8 6 17 2t9 -14v-191h190zM431 -125 q-2 -2 -6.5 -6t-16.5 -4h-341q-10 0 -14 9t3 16l51 59q2 3 7 6t13 3h340q10 0 14.5 -8.5t-2.5 -16.5z" />
<glyph unicode="&#xb4;" horiz-adv-x="204" d="M127 718q5 5 12.5 4.5t12.5 -6.5l25 -32q5 -6 3.5 -13t-7.5 -12l-131 -75q-6 -3 -12.5 -1.5t-9.5 7.5q-7 11 2 20l105 108v0z" />
<glyph unicode="&#xb7;" horiz-adv-x="143" d="M127 255q8 -12 -2 -22l-49 -41q-5 -4 -11 -3.5t-10 5.5l-40 48q-5 5 -4.5 11t5.5 10l48 42q5 5 11 4.5t10 -5.5l42 -49v0z" />
<glyph unicode="&#xba;" horiz-adv-x="204" d="M213 593q0 -13 -13.5 -30t-32 -33.5t-37.5 -30.5t-29 -21q-32 -20 -64 4q-22 15 -27 36.5t-5 53.5v32q0 16 6.5 32t32.5 35q17 12 31 23t33 22q26 15 51 7.5t42 -33.5q9 -12 10.5 -28.5t1.5 -36.5v-32zM134 537v75q0 13 -3 20.5t-9.5 12t-16 7t-21.5 6.5v-79 q0 -13 2.5 -19.5t8.5 -10t15 -6t22 -6.5h2z" />
<glyph unicode="&#xbb;" horiz-adv-x="522" d="M248 380q-5 5 -5 12.5t5 12.5l42 34q11 7 21 -1q50 -44 84.5 -74t57 -49.5t35.5 -30.5t19 -16.5t7 -7l1 -1.5q10 -9 -1 -20l-248 -228q-11 -9 -20 1t1 20l183 168q5 5 4 11.5t-6 11.5zM8 380q-5 5 -5 12.5t5 12.5l42 34q11 7 21 -1q50 -44 84.5 -74t57 -49.5t35.5 -30.5 t19 -16.5t7 -7l1 -1.5q10 -9 -1 -20l-248 -228q-11 -9 -20 1t1 20l183 168q5 5 4 11.5t-6 11.5z" />
<glyph unicode="&#xbf;" horiz-adv-x="347" d="M146 658q-4 5 -3.5 11t5.5 10l48 41q5 4 11 3.5t10 -5.5l41 -49q10 -10 -2 -21l-48 -41q-5 -4 -11 -3.5t-10 5.5zM60 61q-16 18 -16 41v149q0 5 1 6l4 4l106 90v149q0 6 6 12l63 52q8 6 16.5 2t8.5 -14v-151q0 -8 -6 -12l-106 -90v-178q0 -5 3 -8l42 -39l42 36v80 q0 6 6 12l46 38q8 6 17 2t9 -15v-84q0 -7 -6 -11l-156 -130q-5 -4 -10.5 -3.5t-8.5 3.5l-8 8l-6 6t-14 13.5t-33 31.5z" />
<glyph unicode="&#xc0;" horiz-adv-x="441" d="M394 85q7 -5 7 -13.5t-6 -14.5l-59 -50q-6 -6 -14 -6.5t-14 5.5l-58 52q-8 6 -13 15q-5 8 -8.5 18.5t-3.5 25.5v118h-62v-144q0 -8 -4 -16q-2 -4 -4 -6l-77 -64q-9 -8 -21.5 -3t-12.5 19v549q0 8 6 13l181 153q10 7 19 1q1 0 2.5 -1.5t7.5 -6.5t18.5 -15t35.5 -29 q30 -24 30 -62v-480q0 -9 6 -15zM225 329v266q0 10 -8 16l-40 32l-14 -12v-302h62zM112 933q5 6 12.5 6.5t12.5 -4.5l105 -108q9 -9 2 -20q-3 -6 -9.5 -7.5t-12.5 1.5l-131 75q-6 5 -7.5 12t3.5 13l25 32v0z" />
<glyph unicode="&#xc1;" horiz-adv-x="449" d="M394 85q7 -5 7 -13.5t-6 -14.5l-59 -50q-6 -6 -14 -6.5t-14 5.5l-58 52q-8 6 -13 15q-5 8 -8.5 18.5t-3.5 25.5v118h-62v-144q0 -8 -4 -16q-2 -4 -4 -6l-77 -64q-9 -8 -21.5 -3t-12.5 19v549q0 8 6 13l181 153q10 7 19 1q1 0 2.5 -1.5t7.5 -6.5t18.5 -15t35.5 -29 q30 -24 30 -62v-480q0 -9 6 -15zM225 329v266q0 10 -8 16l-40 32l-14 -12v-302h62zM190 931q5 5 12.5 4.5t12.5 -6.5l25 -32q5 -6 3.5 -13t-7.5 -12l-131 -75q-6 -3 -12.5 -1.5t-9.5 7.5q-7 11 2 20l105 108v0z" />
<glyph unicode="&#xc2;" horiz-adv-x="434" d="M394 85q7 -5 7 -13.5t-6 -14.5l-59 -50q-6 -6 -14 -6.5t-14 5.5l-58 52q-8 6 -13 15q-5 8 -8.5 18.5t-3.5 25.5v118h-62v-144q0 -8 -4 -16q-2 -4 -4 -6l-77 -64q-9 -8 -21.5 -3t-12.5 19v549q0 8 6 13l181 153q10 7 19 1q1 0 2.5 -1.5t7.5 -6.5t18.5 -15t35.5 -29 q30 -24 30 -62v-480q0 -9 6 -15zM225 329v266q0 10 -8 16l-40 32l-14 -12v-302h62zM359 834l-51 -50q-9 -9 -22 -6q-35 9 -58 33t-33 58l-87 -77q-11 -9 -18 2q-7 9 2 16l149 134q6 5 13.5 4t11.5 -8q17 -27 41 -50t50 -39q5 -3 5.5 -8t-3.5 -9z" />
<glyph unicode="&#xc3;" horiz-adv-x="449" d="M394 85q7 -5 7 -13.5t-6 -14.5l-59 -50q-6 -6 -14 -6.5t-14 5.5l-58 52q-8 6 -13 15q-5 8 -8.5 18.5t-3.5 25.5v118h-62v-144q0 -8 -4 -16q-2 -4 -4 -6l-77 -64q-9 -8 -21.5 -3t-12.5 19v549q0 8 6 13l181 153q10 7 19 1q1 0 2.5 -1.5t7.5 -6.5t18.5 -15t35.5 -29 q30 -24 30 -62v-480q0 -9 6 -15zM225 329v266q0 10 -8 16l-40 32l-14 -12v-302h62zM205 871q15 -9 28.5 -15.5t26.5 -8.5t26.5 1.5t27.5 14.5q7 6 13 -2q4 -6 -1 -11q-20 -22 -37.5 -33.5t-35 -13.5t-36.5 4t-42 20q-13 7 -25.5 13t-25.5 9t-25 1t-24 -12q-7 -5 -14 3 q-5 7 0 12q20 21 36.5 31t33 11.5t34 -5.5t40.5 -19z" />
<glyph unicode="&#xc4;" horiz-adv-x="442" d="M394 85q7 -5 7 -13.5t-6 -14.5l-59 -50q-6 -6 -14 -6.5t-14 5.5l-58 52q-8 6 -13 15q-5 8 -8.5 18.5t-3.5 25.5v118h-62v-144q0 -8 -4 -16q-2 -4 -4 -6l-77 -64q-9 -8 -21.5 -3t-12.5 19v549q0 8 6 13l181 153q10 7 19 1q1 0 2.5 -1.5t7.5 -6.5t18.5 -15t35.5 -29 q30 -24 30 -62v-480q0 -9 6 -15zM225 329v266q0 10 -8 16l-40 32l-14 -12v-302h62zM162 855q8 -12 -2 -22l-49 -41q-5 -4 -11 -3.5t-10 5.5l-40 48q-5 5 -4.5 11t5.5 10l48 42q5 5 11 4.5t10 -5.5zM338 855q8 -12 -2 -22l-49 -41q-5 -4 -11 -3.5t-10 5.5l-40 48 q-5 5 -4.5 11t5.5 10l48 42q5 5 11 4.5t10 -5.5z" />
<glyph unicode="&#xc5;" horiz-adv-x="449" d="M394 85q7 -5 7 -13.5t-6 -14.5l-59 -50q-6 -6 -14 -6.5t-14 5.5l-58 52q-8 6 -13 15q-5 8 -8.5 18.5t-3.5 25.5v118h-62v-144q0 -8 -4 -16q-2 -4 -4 -6l-77 -64q-9 -8 -21.5 -3t-12.5 19v549q0 8 6 13l181 153q10 7 19 1q1 0 2.5 -1.5t7.5 -6.5t18.5 -15t35.5 -29 q30 -24 30 -62v-480q0 -9 6 -15zM225 329v266q0 10 -8 16l-40 32l-14 -12v-302h62zM267 885v-22q0 -9 -11 -20.5t-26 -23.5t-29.5 -22t-21.5 -14q-11 -8 -24 -7.5t-24 8.5q-29 20 -29 62v22q0 21 34 46q11 8 23 16t25 16q18 11 38.5 6t32.5 -22t12 -45zM203 818l2 54 q-1 19 -11.5 27t-27.5 13l-1 -55q0 -18 10.5 -25.5t27.5 -13.5z" />
<glyph unicode="&#xc6;" horiz-adv-x="647" d="M364 608v-242h137q13 0 18 -11t-3 -21l-87 -74q-9 -8 -16.5 -10.5t-20.5 -2.5h-28v-107q0 -3 1 -11.5t13 -8.5h177q13 0 18 -11.5t-3 -20.5l-88 -74q-8 -8 -15.5 -11t-20.5 -3h-106q-7 0 -13 6l-57 53q-8 5 -13 14q-5 8 -9 18.5t-4 25.5v132h-62v-158q0 -8 -4 -16l-3 -6 l-77 -64q-11 -9 -23 -2q-12 5 -12 18v548v1q0 8 7 14l181 152q12 9 23 -2l60 -48q13 -12 20 -25l74 63q3 3 9 7t17 4h139q12 0 17.5 -11t-2.5 -21l-88 -74q-8 -7 -15.5 -10t-20.5 -3h-111zM244 363v232q0 10 -7 16l-40 33l-15 -12v-269h62z" />
<glyph unicode="&#xc8;" horiz-adv-x="418" d="M150 608v-242h137q13 0 18.5 -11.5t-2.5 -20.5l-88 -75q-8 -7 -14.5 -10t-19.5 -3h-31v-127h191q13 0 18 -11t-3 -21l-87 -74q-9 -7 -16.5 -10t-20.5 -3h-182q-8 0 -13.5 5.5t-5.5 13.5v533q0 11 4 17t7 8l173 147q3 3 8.5 7t16.5 4h136q13 0 18 -11t-3 -21l-87 -74 q-9 -8 -16.5 -10.5t-20.5 -2.5h-108zM126 933q5 6 12.5 6.5t12.5 -4.5l105 -108q9 -9 2 -20q-3 -6 -9.5 -7.5t-12.5 1.5l-131 75q-6 5 -7.5 12t3.5 13l25 32v0z" />
<glyph unicode="&#xc9;" horiz-adv-x="417" d="M150 608v-242h137q13 0 18.5 -11.5t-2.5 -20.5l-88 -75q-8 -7 -14.5 -10t-19.5 -3h-31v-127h191q13 0 18 -11t-3 -21l-87 -74q-9 -7 -16.5 -10t-20.5 -3h-182q-8 0 -13.5 5.5t-5.5 13.5v533q0 11 4 17t7 8l173 147q3 3 8.5 7t16.5 4h136q13 0 18 -11t-3 -21l-87 -74 q-9 -8 -16.5 -10.5t-20.5 -2.5h-108zM210 931q5 5 12.5 4.5t12.5 -6.5l25 -32q5 -6 3.5 -13t-7.5 -12l-131 -75q-6 -3 -12.5 -1.5t-9.5 7.5q-7 11 2 20l105 108v0z" />
<glyph unicode="&#xca;" horiz-adv-x="426" d="M150 608v-242h137q13 0 18.5 -11.5t-2.5 -20.5l-88 -75q-8 -7 -14.5 -10t-19.5 -3h-31v-127h191q13 0 18 -11t-3 -21l-87 -74q-9 -7 -16.5 -10t-20.5 -3h-182q-8 0 -13.5 5.5t-5.5 13.5v533q0 11 4 17t7 8l173 147q3 3 8.5 7t16.5 4h136q13 0 18 -11t-3 -21l-87 -74 q-9 -8 -16.5 -10.5t-20.5 -2.5h-108zM332 834l-51 -50q-9 -9 -22 -6q-35 9 -58 33t-33 58l-87 -77q-11 -9 -18 2q-7 9 2 16l149 134q6 5 13.5 4t11.5 -8q17 -27 41 -50t50 -39q5 -3 5.5 -8t-3.5 -9z" />
<glyph unicode="&#xcb;" horiz-adv-x="433" d="M150 608v-242h137q13 0 18.5 -11.5t-2.5 -20.5l-88 -75q-8 -7 -14.5 -10t-19.5 -3h-31v-127h191q13 0 18 -11t-3 -21l-87 -74q-9 -7 -16.5 -10t-20.5 -3h-182q-8 0 -13.5 5.5t-5.5 13.5v533q0 11 4 17t7 8l173 147q3 3 8.5 7t16.5 4h136q13 0 18 -11t-3 -21l-87 -74 q-9 -8 -16.5 -10.5t-20.5 -2.5h-108zM187 855q8 -12 -2 -22l-49 -41q-5 -4 -11 -3.5t-10 5.5l-40 48q-5 5 -4.5 11t5.5 10l48 42q5 5 11 4.5t10 -5.5zM363 855q8 -12 -2 -22l-49 -41q-5 -4 -11 -3.5t-10 5.5l-40 48q-5 5 -4.5 11t5.5 10l48 42q5 5 11 4.5t10 -5.5z" />
<glyph unicode="&#xcc;" horiz-adv-x="274" d="M259 152q4 -5 3.5 -11t-5.5 -11l-149 -125q-10 -9 -21 -3.5t-11 17.5v594l-41 -35q-5 -3 -10.5 -3t-10.5 5q-4 5 -3.5 11t5.5 11l147 125q10 8 21 3t11 -18v-594l43 36q11 8 21 -2zM49 933q5 6 12.5 6.5t12.5 -4.5l105 -108q9 -9 2 -20q-3 -6 -9.5 -7.5t-12.5 1.5 l-131 75q-6 5 -7.5 12t3.5 13l25 32v0z" />
<glyph unicode="&#xcd;" horiz-adv-x="280" d="M259 152q4 -5 3.5 -11t-5.5 -11l-149 -125q-10 -9 -21 -3.5t-11 17.5v594l-41 -35q-5 -3 -10.5 -3t-10.5 5q-4 5 -3.5 11t5.5 11l147 125q10 8 21 3t11 -18v-594l43 36q11 8 21 -2zM155 931q5 5 12.5 4.5t12.5 -6.5l25 -32q5 -6 3.5 -13t-7.5 -12l-131 -75 q-6 -3 -12.5 -1.5t-9.5 7.5q-7 11 2 20l105 108v0z" />
<glyph unicode="&#xce;" horiz-adv-x="281" d="M259 152q4 -5 3.5 -11t-5.5 -11l-149 -125q-10 -9 -21 -3.5t-11 17.5v594l-41 -35q-5 -3 -10.5 -3t-10.5 5q-4 5 -3.5 11t5.5 11l147 125q10 8 21 3t11 -18v-594l43 36q11 8 21 -2zM280 834l-51 -50q-9 -9 -22 -6q-35 9 -58 33t-33 58l-87 -77q-11 -9 -18 2q-7 9 2 16 l149 134q6 5 13.5 4t11.5 -8q17 -27 41 -50t50 -39q5 -3 5.5 -8t-3.5 -9z" />
<glyph unicode="&#xcf;" horiz-adv-x="273" d="M259 152q4 -5 3.5 -11t-5.5 -11l-149 -125q-10 -9 -21 -3.5t-11 17.5v594l-41 -35q-5 -3 -10.5 -3t-10.5 5q-4 5 -3.5 11t5.5 11l147 125q10 8 21 3t11 -18v-594l43 36q11 8 21 -2zM89 855q8 -12 -2 -22l-49 -41q-5 -4 -11 -3.5t-10 5.5l-40 48q-5 5 -4.5 11t5.5 10 l48 42q5 5 11 4.5t10 -5.5zM265 855q8 -12 -2 -22l-49 -41q-5 -4 -11 -3.5t-10 5.5l-40 48q-5 5 -4.5 11t5.5 10l48 42q5 5 11 4.5t10 -5.5z" />
<glyph unicode="&#xd1;" horiz-adv-x="495" d="M464 87q6 -6 6 -14.5t-5 -14.5l-63 -51q-6 -6 -14 -6.5t-14 5.5l-62 52q-8 5 -13 13q-5 7 -8.5 16t-3.5 21v455q0 5 -2 11.5t-6 9.5l-60 51q-1 1 -2 1.5t-2 2.5l-22 -19v-524q0 -16 -4.5 -21.5t-8.5 -8.5l-74 -61q-10 -8 -21 -3t-11 18v549q0 11 -8 17l-70 58q-5 5 -8 10 q-2 5 -1.5 11t8.5 14l57 48q5 5 10.5 6.5t9.5 0.5t8 -4l83 -65q3 -3 6.5 -6t6.5 -7l88 74q15 13 29 3l83 -70q30 -24 30 -63v-451q0 -8 2 -11.5t4 -5.5l52 -41v0zM217 857q15 -9 28.5 -15.5t26.5 -8.5t26.5 1.5t27.5 14.5q7 6 13 -2q4 -6 -1 -11q-20 -22 -37.5 -33.5 t-35 -13.5t-36.5 4t-42 20q-13 7 -25.5 13t-25.5 9t-25 1t-24 -12q-7 -5 -14 3q-5 7 0 12q20 21 36.5 31t33 11.5t34 -5.5t40.5 -19z" />
<glyph unicode="&#xd2;" horiz-adv-x="392" d="M25 553q0 9 7 16l192 161q6 5 13.5 4t11.5 -6q20 -18 37 -31q14 -12 25.5 -21.5t12.5 -9.5q22 -19 22 -48v-445q0 -8 -7 -14l-182 -154q-6 -5 -13.5 -6t-13.5 5l-74 61q-16 11 -23.5 28t-7.5 35v425zM206 95q16 13 18 15l1 1v461q0 11 -8 17l-52 45l-20 -17v-462 q0 -10 8 -16zM118 933q5 6 12.5 6.5t12.5 -4.5l105 -108q9 -9 2 -20q-3 -6 -9.5 -7.5t-12.5 1.5l-131 75q-6 5 -7.5 12t3.5 13l25 32v0z" />
<glyph unicode="&#xd3;" horiz-adv-x="384" d="M25 553q0 9 7 16l192 161q6 5 13.5 4t11.5 -6q20 -18 37 -31q14 -12 25.5 -21.5t12.5 -9.5q22 -19 22 -48v-445q0 -8 -7 -14l-182 -154q-6 -5 -13.5 -6t-13.5 5l-74 61q-16 11 -23.5 28t-7.5 35v425zM206 95q16 13 18 15l1 1v461q0 11 -8 17l-52 45l-20 -17v-462 q0 -10 8 -16zM208 931q5 5 12.5 4.5t12.5 -6.5l25 -32q5 -6 3.5 -13t-7.5 -12l-131 -75q-6 -3 -12.5 -1.5t-9.5 7.5q-7 11 2 20l105 108v0z" />
<glyph unicode="&#xd4;" horiz-adv-x="380" d="M25 553q0 9 7 16l192 161q6 5 13.5 4t11.5 -6q20 -18 37 -31q14 -12 25.5 -21.5t12.5 -9.5q22 -19 22 -48v-445q0 -8 -7 -14l-182 -154q-6 -5 -13.5 -6t-13.5 5l-74 61q-16 11 -23.5 28t-7.5 35v425zM206 95q16 13 18 15l1 1v461q0 11 -8 17l-52 45l-20 -17v-462 q0 -10 8 -16zM321 834l-51 -50q-9 -9 -22 -6q-35 9 -58 33t-33 58l-87 -77q-11 -9 -18 2q-7 9 2 16l149 134q6 5 13.5 4t11.5 -8q17 -27 41 -50t50 -39q5 -3 5.5 -8t-3.5 -9z" />
<glyph unicode="&#xd5;" horiz-adv-x="380" d="M25 553q0 9 7 16l192 161q6 5 13.5 4t11.5 -6q20 -18 37 -31q14 -12 25.5 -21.5t12.5 -9.5q22 -19 22 -48v-445q0 -8 -7 -14l-182 -154q-6 -5 -13.5 -6t-13.5 5l-74 61q-16 11 -23.5 28t-7.5 35v425zM206 95q16 13 18 15l1 1v461q0 11 -8 17l-52 45l-20 -17v-462 q0 -10 8 -16zM192 857q15 -9 28.5 -15.5t26.5 -8.5t26.5 1.5t27.5 14.5q7 6 13 -2q4 -6 -1 -11q-20 -22 -37.5 -33.5t-35 -13.5t-36.5 4t-42 20q-13 7 -25.5 13t-25.5 9t-25 1t-24 -12q-7 -5 -14 3q-5 7 0 12q20 21 36.5 31t33 11.5t34 -5.5t40.5 -19z" />
<glyph unicode="&#xd6;" horiz-adv-x="377" d="M25 553q0 9 7 16l192 161q6 5 13.5 4t11.5 -6q20 -18 37 -31q14 -12 25.5 -21.5t12.5 -9.5q22 -19 22 -48v-445q0 -8 -7 -14l-182 -154q-6 -5 -13.5 -6t-13.5 5l-74 61q-16 11 -23.5 28t-7.5 35v425zM206 95q16 13 18 15l1 1v461q0 11 -8 17l-52 45l-20 -17v-462 q0 -10 8 -16zM159 855q8 -12 -2 -22l-49 -41q-5 -4 -11 -3.5t-10 5.5l-40 48q-5 5 -4.5 11t5.5 10l48 42q5 5 11 4.5t10 -5.5zM335 855q8 -12 -2 -22l-49 -41q-5 -4 -11 -3.5t-10 5.5l-40 48q-5 5 -4.5 11t5.5 10l48 42q5 5 11 4.5t10 -5.5z" />
<glyph unicode="&#xd7;" horiz-adv-x="515" d="M307 273l178 -194q6 -6 -1 -11l-71 -58q-6 -6 -10 1l-169 183q-38 -41 -60 -64.5t-34 -35t-15.5 -14l-3.5 -2.5l-87 -70q-6 -4 -12.5 3t-1.5 12l190 196l-175 191q-6 6 1 11l71 61q6 6 10 0l169 -185l122 127l1.5 1t9.5 7t24.5 19t46.5 36q6 4 10 -1.5t0 -10.5z" />
<glyph unicode="&#xd8;" horiz-adv-x="768" d="M781 633q5 -7 4.5 -16t-7.5 -15l-59 -49q29 -56 34 -119t-9.5 -125t-47.5 -119t-80 -101q-41 -38 -87 -57.5t-85 -27.5q-46 -10 -90 -8q-55 0 -108 19.5t-99 56.5l-52 -43q-7 -6 -16 -5t-15 8l-48 58q-6 7 -5.5 16t7.5 15l50 41q-54 84 -54 173q0 28 7 61.5t27.5 73 t57 85.5t96.5 99q11 10 22 -1q5 -5 5 -11t-5 -11q-51 -48 -75 -99t-27.5 -100.5t10.5 -96t39 -86.5l382 320q-21 19 -49.5 36.5t-64.5 22.5t-79.5 -7t-94.5 -51q-5 -4 -11.5 -3t-10.5 7q-5 5 -3.5 11t6.5 10q67 67 124.5 98t107 33.5t91.5 -18.5t80 -58l52 44q7 6 16 5 t15 -8zM254 163q58 -49 117 -64.5t111 -4.5t93 45t62 84t18.5 113.5t-37.5 132.5z" />
<glyph unicode="&#xd9;" horiz-adv-x="516" d="M479 117q5 -5 5 -13t-5 -15l-99 -81q-3 -3 -7.5 -5.5t-9.5 -2.5q-3 0 -7.5 0.5t-9.5 4.5l-78 65q-3 2 -8 7l-84 -71q-6 -5 -13 -5.5t-14 4.5l-75 58q-31 25 -31 63v505q0 19 4 24t9 13l75 62q10 8 21.5 3t11.5 -18v-560q0 -10 7 -15l48 -46q9 8 14 11t7 5q-3 12 -3 23 v511q0 9 4 17q2 4 4 5l77 64q5 5 11.5 5t11.5 -2t8.5 -7t3.5 -11l-1 -553q0 -10 8 -16l59 -50l31 24q5 5 12.5 4t12.5 -7zM155 933q5 6 12.5 6.5t12.5 -4.5l105 -108q9 -9 2 -20q-3 -6 -9.5 -7.5t-12.5 1.5l-131 75q-6 5 -7.5 12t3.5 13l25 32v0z" />
<glyph unicode="&#xda;" horiz-adv-x="502" d="M479 117q5 -5 5 -13t-5 -15l-99 -81q-3 -3 -7.5 -5.5t-9.5 -2.5q-3 0 -7.5 0.5t-9.5 4.5l-78 65q-3 2 -8 7l-84 -71q-6 -5 -13 -5.5t-14 4.5l-75 58q-31 25 -31 63v505q0 19 4 24t9 13l75 62q10 8 21.5 3t11.5 -18v-560q0 -10 7 -15l48 -46q9 8 14 11t7 5q-3 12 -3 23 v511q0 9 4 17q2 4 4 5l77 64q5 5 11.5 5t11.5 -2t8.5 -7t3.5 -11l-1 -553q0 -10 8 -16l59 -50l31 24q5 5 12.5 4t12.5 -7zM232 931q5 5 12.5 4.5t12.5 -6.5l25 -32q5 -6 3.5 -13t-7.5 -12l-131 -75q-6 -3 -12.5 -1.5t-9.5 7.5q-7 11 2 20l105 108v0z" />
<glyph unicode="&#xdb;" horiz-adv-x="502" d="M479 117q5 -5 5 -13t-5 -15l-99 -81q-3 -3 -7.5 -5.5t-9.5 -2.5q-3 0 -7.5 0.5t-9.5 4.5l-78 65q-3 2 -8 7l-84 -71q-6 -5 -13 -5.5t-14 4.5l-75 58q-31 25 -31 63v505q0 19 4 24t9 13l75 62q10 8 21.5 3t11.5 -18v-560q0 -10 7 -15l48 -46q9 8 14 11t7 5q-3 12 -3 23 v511q0 9 4 17q2 4 4 5l77 64q5 5 11.5 5t11.5 -2t8.5 -7t3.5 -11l-1 -553q0 -10 8 -16l59 -50l31 24q5 5 12.5 4t12.5 -7zM349 834l-51 -50q-9 -9 -22 -6q-35 9 -58 33t-33 58l-87 -77q-11 -9 -18 2q-7 9 2 16l149 134q6 5 13.5 4t11.5 -8q17 -27 41 -50t50 -39q5 -3 5.5 -8 t-3.5 -9z" />
<glyph unicode="&#xdc;" horiz-adv-x="503" d="M479 117q5 -5 5 -13t-5 -15l-99 -81q-3 -3 -7.5 -5.5t-9.5 -2.5q-3 0 -7.5 0.5t-9.5 4.5l-78 65q-3 2 -8 7l-84 -71q-6 -5 -13 -5.5t-14 4.5l-75 58q-31 25 -31 63v505q0 19 4 24t9 13l75 62q10 8 21.5 3t11.5 -18v-560q0 -10 7 -15l48 -46q9 8 14 11t7 5q-3 12 -3 23 v511q0 9 4 17q2 4 4 5l77 64q5 5 11.5 5t11.5 -2t8.5 -7t3.5 -11l-1 -553q0 -10 8 -16l59 -50l31 24q5 5 12.5 4t12.5 -7zM168 855q8 -12 -2 -22l-49 -41q-5 -4 -11 -3.5t-10 5.5l-40 48q-5 5 -4.5 11t5.5 10l48 42q5 5 11 4.5t10 -5.5zM344 855q8 -12 -2 -22l-49 -41 q-5 -4 -11 -3.5t-10 5.5l-40 48q-5 5 -4.5 11t5.5 10l48 42q5 5 11 4.5t10 -5.5z" />
<glyph unicode="&#xdd;" horiz-adv-x="423" d="M382 161q0 -11 -4 -17t-7 -9l-154 -132q-5 -3 -14.5 -3.5t-13.5 3.5l-109 93q-8 8 -13.5 15.5t-5.5 18.5v15q0 5 1 10.5t8 10.5l84 71q8 7 17 2.5t9 -15.5v-61q0 -7 1.5 -12t9.5 -11l65 -54l6 5v253l-72 -61q-6 -5 -13.5 -5.5t-14.5 4.5l-71 61q-15 12 -23 29t-8 34v223 q0 19 4.5 24t9.5 13l74 62q10 8 21.5 3t11.5 -18v-280q0 -11 7 -15l52 -44q8 6 12 9.5t6 5.5q3 2 3 3v46v76.5t1 130.5q0 7 4 12t8 9l75 62q10 8 21.5 3t11.5 -18v-552zM248 931q5 5 12.5 4.5t12.5 -6.5l25 -32q5 -6 3.5 -13t-7.5 -12l-131 -75q-6 -3 -12.5 -1.5t-9.5 7.5 q-7 11 2 20l105 108v0z" />
<glyph unicode="&#xe0;" horiz-adv-x="385" d="M192 446q8 6 16 1l1.5 -1t6.5 -5t16 -12.5t30 -24.5q26 -21 26 -53v-225q0 -9 5 -13l38 -34q5 -5 5 -12t-5 -12l-45 -50q-5 -5 -12 -5t-12 5l-54 49q-4 3 -10 11l-73 -61q-4 -4 -10 -4t-11 5l-50 49q-21 19 -21 49v202v1q0 7 5 11zM187 95q0 2 -0.5 4.5t-0.5 4.5v223 q0 8 -6 13l-34 28l-12 -10v-233q0 -7 5 -12l33 -30zM109 681q5 6 12.5 6.5t12.5 -4.5l105 -108q9 -9 2 -20q-3 -6 -9.5 -7.5t-12.5 1.5l-131 75q-6 5 -7.5 12t3.5 13l25 32v0z" />
<glyph unicode="&#xe1;" horiz-adv-x="385" d="M192 446q8 6 16 1l1.5 -1t6.5 -5t16 -12.5t30 -24.5q26 -21 26 -53v-225q0 -9 5 -13l38 -34q5 -5 5 -12t-5 -12l-45 -50q-5 -5 -12 -5t-12 5l-54 49q-4 3 -10 11l-73 -61q-4 -4 -10 -4t-11 5l-50 49q-21 19 -21 49v202v1q0 7 5 11zM187 95q0 2 -0.5 4.5t-0.5 4.5v223 q0 8 -6 13l-34 28l-12 -10v-233q0 -7 5 -12l33 -30zM212 674q5 5 12.5 4.5t12.5 -6.5l25 -32q5 -6 3.5 -13t-7.5 -12l-131 -75q-6 -3 -12.5 -1.5t-9.5 7.5q-7 11 2 20l105 108v0z" />
<glyph unicode="&#xe2;" horiz-adv-x="385" d="M192 446q8 6 16 1l1.5 -1t6.5 -5t16 -12.5t30 -24.5q26 -21 26 -53v-225q0 -9 5 -13l38 -34q5 -5 5 -12t-5 -12l-45 -50q-5 -5 -12 -5t-12 5l-54 49q-4 3 -10 11l-73 -61q-4 -4 -10 -4t-11 5l-50 49q-21 19 -21 49v202v1q0 7 5 11zM187 95q0 2 -0.5 4.5t-0.5 4.5v223 q0 8 -6 13l-34 28l-12 -10v-233q0 -7 5 -12l33 -30zM321 582l-51 -50q-9 -9 -22 -6q-35 9 -58 33t-33 58l-87 -77q-11 -9 -18 2q-7 9 2 16l149 134q6 5 13.5 4t11.5 -8q17 -27 41 -50t50 -39q5 -3 5.5 -8t-3.5 -9z" />
<glyph unicode="&#xe3;" horiz-adv-x="385" d="M192 446q8 6 16 1l1.5 -1t6.5 -5t16 -12.5t30 -24.5q26 -21 26 -53v-225q0 -9 5 -13l38 -34q5 -5 5 -12t-5 -12l-45 -50q-5 -5 -12 -5t-12 5l-54 49q-4 3 -10 11l-73 -61q-4 -4 -10 -4t-11 5l-50 49q-21 19 -21 49v202v1q0 7 5 11zM187 95q0 2 -0.5 4.5t-0.5 4.5v223 q0 8 -6 13l-34 28l-12 -10v-233q0 -7 5 -12l33 -30zM177 608q15 -9 28.5 -15.5t26.5 -8.5t26.5 1.5t27.5 14.5q7 6 13 -2q4 -6 -1 -11q-20 -22 -37.5 -33.5t-35 -13.5t-36.5 4t-42 20q-13 7 -25.5 13t-25.5 9t-25 1t-24 -12q-7 -5 -14 3q-5 7 0 12q20 21 36.5 31t33 11.5 t34 -5.5t40.5 -19z" />
<glyph unicode="&#xe4;" horiz-adv-x="385" d="M192 446q8 6 16 1l1.5 -1t6.5 -5t16 -12.5t30 -24.5q26 -21 26 -53v-225q0 -9 5 -13l38 -34q5 -5 5 -12t-5 -12l-45 -50q-5 -5 -12 -5t-12 5l-54 49q-4 3 -10 11l-73 -61q-4 -4 -10 -4t-11 5l-50 49q-21 19 -21 49v202v1q0 7 5 11zM187 95q0 2 -0.5 4.5t-0.5 4.5v223 q0 8 -6 13l-34 28l-12 -10v-233q0 -7 5 -12l33 -30zM129 603q8 -12 -2 -22l-49 -41q-5 -4 -11 -3.5t-10 5.5l-40 48q-5 5 -4.5 11t5.5 10l48 42q5 5 11 4.5t10 -5.5zM305 603q8 -12 -2 -22l-49 -41q-5 -4 -11 -3.5t-10 5.5l-40 48q-5 5 -4.5 11t5.5 10l48 42q5 5 11 4.5 t10 -5.5z" />
<glyph unicode="&#xe5;" horiz-adv-x="385" d="M192 446q8 6 16 1l1.5 -1t6.5 -5t16 -12.5t30 -24.5q26 -21 26 -53v-225q0 -9 5 -13l38 -34q5 -5 5 -12t-5 -12l-45 -50q-5 -5 -12 -5t-12 5l-54 49q-4 3 -10 11l-73 -61q-4 -4 -10 -4t-11 5l-50 49q-21 19 -21 49v202v1q0 7 5 11zM187 95q0 2 -0.5 4.5t-0.5 4.5v223 q0 8 -6 13l-34 28l-12 -10v-233q0 -7 5 -12l33 -30zM243 633v-22q0 -9 -11 -20.5t-26 -23.5t-29.5 -22t-21.5 -14q-11 -8 -24 -7.5t-24 8.5q-29 20 -29 62v22q0 21 34 46q11 8 23 16t25 16q18 11 38.5 6t32.5 -22t12 -45zM179 566l2 54q-1 19 -11.5 27t-27.5 13l-1 -55 q0 -18 10.5 -25.5t27.5 -13.5z" />
<glyph unicode="&#xe6;" horiz-adv-x="467" d="M440 272q2 -8 -5 -13l-147 -123q0 -8 2 -12t5 -7l36 -30l39 33q12 8 22 -2q8 -12 -2 -22l-106 -90q-11 -10 -23 -1l-48 40q-11 10 -17 21l-71 -59q-4 -4 -10 -4t-11 5l-50 49q-11 10 -16 22.5t-5 26.5v203q0 6 5 11l154 129q5 4 10 3t10 -4q21 -18 33.5 -28.5t19.5 -16.5 t9.5 -9t4.5 -6l50 42q11 9 23 -1l76 -68q5 -4 9 -13t3 -17v-59zM187 98v232q0 8 -7 13l-34 28l-12 -10v-233q0 -7 5 -12l33 -30zM339 298q0 6 -6 14l-45 39v-175l51 42v80z" />
<glyph unicode="&#xe8;" horiz-adv-x="356" d="M293 375q5 -5 8.5 -13.5t3.5 -16.5v-59q0 -9 -6 -13l-146 -123v-5q0 -8 6 -14l59 -45l38 32q12 8 22 -2q4 -5 3.5 -11t-5.5 -10l-106 -91q-12 -8 -23 0l-69 55q-26 20 -26 53v205q0 8 7 15l135 112q5 5 11 4.5t11 -5.5zM153 190l51 42v80q0 7 -7 14l-44 39v-175zM101 681 q5 6 12.5 6.5t12.5 -4.5l105 -108q9 -9 2 -20q-3 -6 -9.5 -7.5t-12.5 1.5l-131 75q-6 5 -7.5 12t3.5 13l25 32v0z" />
<glyph unicode="&#xe9;" horiz-adv-x="356" d="M293 375q5 -5 8.5 -13.5t3.5 -16.5v-59q0 -9 -6 -13l-146 -123v-5q0 -8 6 -14l59 -45l38 32q12 8 22 -2q4 -5 3.5 -11t-5.5 -10l-106 -91q-12 -8 -23 0l-69 55q-26 20 -26 53v205q0 8 7 15l135 112q5 5 11 4.5t11 -5.5zM153 190l51 42v80q0 7 -7 14l-44 39v-175zM213 679 q5 5 12.5 4.5t12.5 -6.5l25 -32q5 -6 3.5 -13t-7.5 -12l-131 -75q-6 -3 -12.5 -1.5t-9.5 7.5q-7 11 2 20l105 108v0z" />
<glyph unicode="&#xea;" horiz-adv-x="356" d="M293 375q5 -5 8.5 -13.5t3.5 -16.5v-59q0 -9 -6 -13l-146 -123v-5q0 -8 6 -14l59 -45l38 32q12 8 22 -2q4 -5 3.5 -11t-5.5 -10l-106 -91q-12 -8 -23 0l-69 55q-26 20 -26 53v205q0 8 7 15l135 112q5 5 11 4.5t11 -5.5zM153 190l51 42v80q0 7 -7 14l-44 39v-175zM325 582 l-51 -50q-9 -9 -22 -6q-35 9 -58 33t-33 58l-87 -77q-11 -9 -18 2q-7 9 2 16l149 134q6 5 13.5 4t11.5 -8q17 -27 41 -50t50 -39q5 -3 5.5 -8t-3.5 -9z" />
<glyph unicode="&#xeb;" horiz-adv-x="356" d="M293 375q5 -5 8.5 -13.5t3.5 -16.5v-59q0 -9 -6 -13l-146 -123v-5q0 -8 6 -14l59 -45l38 32q12 8 22 -2q4 -5 3.5 -11t-5.5 -10l-106 -91q-12 -8 -23 0l-69 55q-26 20 -26 53v205q0 8 7 15l135 112q5 5 11 4.5t11 -5.5zM153 190l51 42v80q0 7 -7 14l-44 39v-175zM139 603 q8 -12 -2 -22l-49 -41q-5 -4 -11 -3.5t-10 5.5l-40 48q-5 5 -4.5 11t5.5 10l48 42q5 5 11 4.5t10 -5.5zM315 603q8 -12 -2 -22l-49 -41q-5 -4 -11 -3.5t-10 5.5l-40 48q-5 5 -4.5 11t5.5 10l48 42q5 5 11 4.5t10 -5.5z" />
<glyph unicode="&#xec;" horiz-adv-x="227" d="M-4 681q5 6 12.5 6.5t12.5 -4.5l105 -108q9 -9 2 -20q-3 -6 -9.5 -7.5t-12.5 1.5l-131 75q-6 5 -7.5 12t3.5 13l25 32v0z" />
<glyph unicode="&#xed;" horiz-adv-x="227" d="M209 679q5 5 12.5 4.5t12.5 -6.5l25 -32q5 -6 3.5 -13t-7.5 -12l-131 -75q-6 -3 -12.5 -1.5t-9.5 7.5q-7 11 2 20l105 108v0z" />
<glyph unicode="&#xee;" horiz-adv-x="227" d="M272 582l-51 -50q-9 -9 -22 -6q-35 9 -58 33t-33 58l-87 -77q-11 -9 -18 2q-7 9 2 16l149 134q6 5 13.5 4t11.5 -8q17 -27 41 -50t50 -39q5 -3 5.5 -8t-3.5 -9z" />
<glyph unicode="&#xef;" horiz-adv-x="227" d="M75 603q8 -12 -2 -22l-49 -41q-5 -4 -11 -3.5t-10 5.5l-40 48q-5 5 -4.5 11t5.5 10l48 42q5 5 11 4.5t10 -5.5zM251 603q8 -12 -2 -22l-49 -41q-5 -4 -11 -3.5t-10 5.5l-40 48q-5 5 -4.5 11t5.5 10l48 42q5 5 11 4.5t10 -5.5z" />
<glyph unicode="&#xf1;" horiz-adv-x="420" d="M217 443q4 4 10.5 4t11.5 -3l72 -57q25 -20 25 -53v-227l33 27q12 9 21 -2q10 -11 -1 -22l-129 -107q-8 -5 -16.5 -1t-8.5 15v291q0 8 -6 13q-20 17 -31.5 25.5t-16.5 13.5q-6 5 -7 7l-6 -5q5 -10 5 -25v-262q0 -10 -7 -14l-69 -58q-8 -6 -16.5 -1.5t-8.5 14.5v295 q0 8 -5 12l-26 20q-6 5 -5 11t6 11l53 46q10 8 22 -1l33 -24l67 57v0zM218 605q15 -9 28.5 -15.5t26.5 -8.5t26.5 1.5t27.5 14.5q7 6 13 -2q4 -6 -1 -11q-20 -22 -37.5 -33.5t-35 -13.5t-36.5 4t-42 20q-13 7 -25.5 13t-25.5 9t-25 1t-24 -12q-7 -5 -14 3q-5 7 0 12 q20 21 36.5 31t33 11.5t34 -5.5t40.5 -19z" />
<glyph unicode="&#xf2;" horiz-adv-x="373" d="M57 300q0 7 6 13l161 135q5 4 11 3.5t10 -5.5q18 -16 31 -28q11 -11 20.5 -19t10.5 -8q19 -16 19 -40v-205q0 -8 -6 -12l-152 -129q-5 -4 -11.5 -5t-11.5 4l-62 49q-13 10 -19.5 24t-6.5 29v194zM225 94v224q0 9 -7 14l-44 35l-16 -14v-223q0 -9 6 -13l42 -39zM116 681 q5 6 12.5 6.5t12.5 -4.5l105 -108q9 -9 2 -20q-3 -6 -9.5 -7.5t-12.5 1.5l-131 75q-6 5 -7.5 12t3.5 13l25 32v0z" />
<glyph unicode="&#xf3;" horiz-adv-x="373" d="M57 300q0 7 6 13l161 135q5 4 11 3.5t10 -5.5q18 -16 31 -28q11 -11 20.5 -19t10.5 -8q19 -16 19 -40v-205q0 -8 -6 -12l-152 -129q-5 -4 -11.5 -5t-11.5 4l-62 49q-13 10 -19.5 24t-6.5 29v194zM225 94v224q0 9 -7 14l-44 35l-16 -14v-223q0 -9 6 -13l42 -39zM247 679 q5 5 12.5 4.5t12.5 -6.5l25 -32q5 -6 3.5 -13t-7.5 -12l-131 -75q-6 -3 -12.5 -1.5t-9.5 7.5q-7 11 2 20l105 108v0z" />
<glyph unicode="&#xf4;" horiz-adv-x="373" d="M57 300q0 7 6 13l161 135q5 4 11 3.5t10 -5.5q18 -16 31 -28q11 -11 20.5 -19t10.5 -8q19 -16 19 -40v-205q0 -8 -6 -12l-152 -129q-5 -4 -11.5 -5t-11.5 4l-62 49q-13 10 -19.5 24t-6.5 29v194zM225 94v224q0 9 -7 14l-44 35l-16 -14v-223q0 -9 6 -13l42 -39zM334 582 l-51 -50q-9 -9 -22 -6q-35 9 -58 33t-33 58l-87 -77q-11 -9 -18 2q-7 9 2 16l149 134q6 5 13.5 4t11.5 -8q17 -27 41 -50t50 -39q5 -3 5.5 -8t-3.5 -9z" />
<glyph unicode="&#xf5;" horiz-adv-x="373" d="M57 300q0 7 6 13l161 135q5 4 11 3.5t10 -5.5q18 -16 31 -28q11 -11 20.5 -19t10.5 -8q19 -16 19 -40v-205q0 -8 -6 -12l-152 -129q-5 -4 -11.5 -5t-11.5 4l-62 49q-13 10 -19.5 24t-6.5 29v194zM225 94v224q0 9 -7 14l-44 35l-16 -14v-223q0 -9 6 -13l42 -39zM213 605 q15 -9 28.5 -15.5t26.5 -8.5t26.5 1.5t27.5 14.5q7 6 13 -2q4 -6 -1 -11q-20 -22 -37.5 -33.5t-35 -13.5t-36.5 4t-42 20q-13 7 -25.5 13t-25.5 9t-25 1t-24 -12q-7 -5 -14 3q-5 7 0 12q20 21 36.5 31t33 11.5t34 -5.5t40.5 -19z" />
<glyph unicode="&#xf6;" horiz-adv-x="373" d="M57 300q0 7 6 13l161 135q5 4 11 3.5t10 -5.5q18 -16 31 -28q11 -11 20.5 -19t10.5 -8q19 -16 19 -40v-205q0 -8 -6 -12l-152 -129q-5 -4 -11.5 -5t-11.5 4l-62 49q-13 10 -19.5 24t-6.5 29v194zM225 94v224q0 9 -7 14l-44 35l-16 -14v-223q0 -9 6 -13l42 -39zM164 603 q8 -12 -2 -22l-49 -41q-5 -4 -11 -3.5t-10 5.5l-40 48q-5 5 -4.5 11t5.5 10l48 42q5 5 11 4.5t10 -5.5zM340 603q8 -12 -2 -22l-49 -41q-5 -4 -11 -3.5t-10 5.5l-40 48q-5 5 -4.5 11t5.5 10l48 42q5 5 11 4.5t10 -5.5z" />
<glyph unicode="&#xf7;" horiz-adv-x="467" d="M225 83l-43 48q-11 11 1 21l47 43q5 4 11 4t10 -5l43 -48q10 -10 -1 -21l-47 -43q-5 -4 -11 -4t-10 5zM232 361l-43 48q-11 11 1 21l47 43q5 4 11 4t10 -5l43 -48q5 -5 4.5 -11t-5.5 -10l-47 -43q-5 -4 -11 -4t-10 5zM402 244l48 58q6 8 2 16.5t-14 8.5h-341q-8 0 -13 -3 t-7 -6l-51 -59q-6 -7 -2 -16t14 -9h341q12 0 16.5 4t6.5 6z" />
<glyph unicode="&#xf9;" horiz-adv-x="450" d="M172 3l-71 55q-20 15 -20 39v245q0 8 -6 13l-12 11l-19 -16q-5 -5 -11 -4.5t-11 5.5q-8 12 2 22l84 71q10 8 20 0l4 -4q3 -3 9.5 -8.5t18.5 -15.5q23 -21 23 -51v-235q0 -9 6 -13l46 -39l6 5v284q0 7 6 12l70 67q8 6 16.5 2t8.5 -14v-300q0 -6 6 -12l62 -49 q6 -5 8.5 -11.5t-3.5 -12.5l-38 -33l-13 -11q-5 -5 -12 -5q-2 -1 -4 0q-3 0 -7 4l-74 61l-74 -62q-5 -3 -10 -3q-7 0 -11 3zM131 686q5 6 12.5 6.5t12.5 -4.5l105 -108q9 -9 2 -20q-3 -6 -9.5 -7.5t-12.5 1.5l-131 75q-6 5 -7.5 12t3.5 13l25 32v0z" />
<glyph unicode="&#xfa;" horiz-adv-x="450" d="M172 3l-71 55q-20 15 -20 39v245q0 8 -6 13l-12 11l-19 -16q-5 -5 -11 -4.5t-11 5.5q-8 12 2 22l84 71q10 8 20 0l4 -4q3 -3 9.5 -8.5t18.5 -15.5q23 -21 23 -51v-235q0 -9 6 -13l46 -39l6 5v284q0 7 6 12l70 67q8 6 16.5 2t8.5 -14v-300q0 -6 6 -12l62 -49 q6 -5 8.5 -11.5t-3.5 -12.5l-38 -33l-13 -11q-5 -5 -12 -5q-2 -1 -4 0q-3 0 -7 4l-74 61l-74 -62q-5 -3 -10 -3q-7 0 -11 3zM259 684q5 5 12.5 4.5t12.5 -6.5l25 -32q5 -6 3.5 -13t-7.5 -12l-131 -75q-6 -3 -12.5 -1.5t-9.5 7.5q-7 11 2 20l105 108v0z" />
<glyph unicode="&#xfb;" horiz-adv-x="450" d="M172 3l-71 55q-20 15 -20 39v245q0 8 -6 13l-12 11l-19 -16q-5 -5 -11 -4.5t-11 5.5q-8 12 2 22l84 71q10 8 20 0l4 -4q3 -3 9.5 -8.5t18.5 -15.5q23 -21 23 -51v-235q0 -9 6 -13l46 -39l6 5v284q0 7 6 12l70 67q8 6 16.5 2t8.5 -14v-300q0 -6 6 -12l62 -49 q6 -5 8.5 -11.5t-3.5 -12.5l-38 -33l-13 -11q-5 -5 -12 -5q-2 -1 -4 0q-3 0 -7 4l-74 61l-74 -62q-5 -3 -10 -3q-7 0 -11 3zM366 587l-51 -50q-9 -9 -22 -6q-35 9 -58 33t-33 58l-87 -77q-11 -9 -18 2q-7 9 2 16l149 134q6 5 13.5 4t11.5 -8q17 -27 41 -50t50 -39 q5 -3 5.5 -8t-3.5 -9z" />
<glyph unicode="&#xfc;" horiz-adv-x="450" d="M172 3l-71 55q-20 15 -20 39v245q0 8 -6 13l-12 11l-19 -16q-5 -5 -11 -4.5t-11 5.5q-8 12 2 22l84 71q10 8 20 0l4 -4q3 -3 9.5 -8.5t18.5 -15.5q23 -21 23 -51v-235q0 -9 6 -13l46 -39l6 5v284q0 7 6 12l70 67q8 6 16.5 2t8.5 -14v-300q0 -6 6 -12l62 -49 q6 -5 8.5 -11.5t-3.5 -12.5l-38 -33l-13 -11q-5 -5 -12 -5q-2 -1 -4 0q-3 0 -7 4l-74 61l-74 -62q-5 -3 -10 -3q-7 0 -11 3zM171 607q8 -12 -2 -22l-49 -41q-5 -4 -11 -3.5t-10 5.5l-40 48q-5 5 -4.5 11t5.5 10l48 42q5 5 11 4.5t10 -5.5zM347 607q8 -12 -2 -22l-49 -41 q-5 -4 -11 -3.5t-10 5.5l-40 48q-5 5 -4.5 11t5.5 10l48 42q5 5 11 4.5t10 -5.5z" />
<glyph unicode="&#xfd;" horiz-adv-x="432" d="M312 447q8 7 18 2t10 -16v-456q0 -9 -6 -13l-187 -158q-5 -4 -11 -3.5t-10 5.5l-42 49q-8 12 2 22q18 15 28 23.5t15 12.5t6 5l1 1q5 4 11.5 3t9.5 -6l33 -39l48 40v123l-46 -39q-5 -3 -10 -3q-6 0 -10 4l-75 58q-24 19 -24 49v239q0 8 -4 12l-17 18q-9 9 0 17l58 50 q9 9 18 0l28 -28q19 -19 19 -45v-238q0 -7 4 -10l58 -45l1 1v294q0 8 7 13l67 58v0zM286 679q5 5 12.5 4.5t12.5 -6.5l25 -32q5 -6 3.5 -13t-7.5 -12l-131 -75q-6 -3 -12.5 -1.5t-9.5 7.5q-7 11 2 20l105 108v0z" />
<glyph unicode="&#xff;" horiz-adv-x="432" d="M312 447q8 7 18 2t10 -16v-456q0 -9 -6 -13l-187 -158q-5 -4 -11 -3.5t-10 5.5l-42 49q-8 12 2 22q18 15 28 23.5t15 12.5t6 5l1 1q5 4 11.5 3t9.5 -6l33 -39l48 40v123l-46 -39q-5 -3 -10 -3q-6 0 -10 4l-75 58q-24 19 -24 49v239q0 8 -4 12l-17 18q-9 9 0 17l58 50 q9 9 18 0l28 -28q19 -19 19 -45v-238q0 -7 4 -10l58 -45l1 1v294q0 8 7 13l67 58v0zM174 603q8 -12 -2 -22l-49 -41q-5 -4 -11 -3.5t-10 5.5l-40 48q-5 5 -4.5 11t5.5 10l48 42q5 5 11 4.5t10 -5.5zM350 603q8 -12 -2 -22l-49 -41q-5 -4 -11 -3.5t-10 5.5l-40 48 q-5 5 -4.5 11t5.5 10l48 42q5 5 11 4.5t10 -5.5z" />
<glyph unicode="&#x153;" horiz-adv-x="478" d="M446 270q0 -9 -5 -13l-147 -123q0 -8 2 -12t5 -7l36 -30l39 32q5 5 11 4.5t10 -5.5q10 -11 -1 -22l-106 -89q-11 -10 -23 -1l-48 39q-11 9 -17 20l-71 -59q-11 -9 -21 1l-50 50q-21 21 -21 49v202v1q0 7 5 11l154 129q8 6 16 1q1 0 2 -1t6.5 -5t16 -12.5t30.5 -24.5 q5 -5 9 -9.5t7 -9.5l51 42q10 10 22 -1l77 -68q4 -4 8 -13t3 -17v-59zM193 96v232q0 8 -7 13l-34 28l-12 -10v-233q0 -7 5 -12l33 -30zM345 296q0 6 -6 14l-45 39v-175l51 43v79z" />
<glyph unicode="&#x178;" horiz-adv-x="465" d="M382 161q0 -11 -4 -17t-7 -9l-154 -132q-5 -3 -14.5 -3.5t-13.5 3.5l-109 93q-8 8 -13.5 15.5t-5.5 18.5v15q0 5 1 10.5t8 10.5l84 71q8 7 17 2.5t9 -15.5v-61q0 -7 1.5 -12t9.5 -11l65 -54l6 5v253l-72 -61q-6 -5 -13.5 -5.5t-14.5 4.5l-71 61q-15 12 -23 29t-8 34v223 q0 19 4.5 24t9.5 13l74 62q10 8 21.5 3t11.5 -18v-280q0 -11 7 -15l52 -44q8 6 12 9.5t6 5.5q3 2 3 3v46v76.5t1 130.5q0 7 4 12t8 9l75 62q10 8 21.5 3t11.5 -18v-552zM196 855q8 -12 -2 -22l-49 -41q-5 -4 -11 -3.5t-10 5.5l-40 48q-5 5 -4.5 11t5.5 10l48 42q5 5 11 4.5 t10 -5.5zM372 855q8 -12 -2 -22l-49 -41q-5 -4 -11 -3.5t-10 5.5l-40 48q-5 5 -4.5 11t5.5 10l48 42q5 5 11 4.5t10 -5.5z" />
<glyph unicode="&#x2c6;" horiz-adv-x="310" d="M287 609l-51 -50q-9 -9 -22 -6q-35 9 -58 33t-33 58l-87 -77q-11 -9 -18 2q-7 9 2 16l149 134q6 5 13.5 4t11.5 -8q17 -27 41 -50t50 -39q5 -3 5.5 -8t-3.5 -9z" />
<glyph unicode="&#x2dc;" horiz-adv-x="299" d="M162 702q15 -9 28.5 -15.5t26.5 -8.5t26.5 1.5t27.5 14.5q7 6 13 -2q4 -6 -1 -11q-20 -22 -37.5 -33.5t-35 -13.5t-36.5 4t-42 20q-13 7 -25.5 13t-25.5 9t-25 1t-24 -12q-7 -5 -14 3q-5 7 0 12q20 21 36.5 31t33 11.5t34 -5.5t40.5 -19z" />
<glyph unicode="&#x300;" d="M-149 710q5 6 12.5 6.5t12.5 -4.5l105 -108q9 -9 2 -20q-3 -6 -9.5 -7.5t-12.5 1.5l-131 75q-6 5 -7.5 12t3.5 13l25 32v0z" />
<glyph unicode="&#x301;" d="M-76 718q5 5 12.5 4.5t12.5 -6.5l25 -32q5 -6 3.5 -13t-7.5 -12l-131 -75q-6 -3 -12.5 -1.5t-9.5 7.5q-7 11 2 20l105 108v0z" />
<glyph unicode="&#x302;" d="M-23 609l-51 -50q-9 -9 -22 -6q-35 9 -58 33t-33 58l-87 -77q-11 -9 -18 2q-7 9 2 16l149 134q6 5 13.5 4t11.5 -8q17 -27 41 -50t50 -39q5 -3 5.5 -8t-3.5 -9z" />
<glyph unicode="&#x303;" d="M-152 695q15 -9 28.5 -15.5t26.5 -8.5t26.5 1.5t27.5 14.5q7 6 13 -2q4 -6 -1 -11q-20 -22 -37.5 -33.5t-35 -13.5t-36.5 4t-42 20q-13 7 -25.5 13t-25.5 9t-25 1t-24 -12q-7 -5 -14 3q-5 7 0 12q20 21 36.5 31t33 11.5t34 -5.5t40.5 -19z" />
<glyph unicode="&#x308;" d="M-199 670q8 -12 -2 -22l-49 -41q-5 -4 -11 -3.5t-10 5.5l-40 48q-5 5 -4.5 11t5.5 10l48 42q5 5 11 4.5t10 -5.5zM-23 670q8 -12 -2 -22l-49 -41q-5 -4 -11 -3.5t-10 5.5l-40 48q-5 5 -4.5 11t5.5 10l48 42q5 5 11 4.5t10 -5.5z" />
<glyph unicode="&#x30a;" d="M-13 663v-22q0 -9 -11 -20.5t-26 -23.5t-29.5 -22t-21.5 -14q-11 -8 -24 -7.5t-24 8.5q-29 20 -29 62v22q0 21 34 46q11 8 23 16t25 16q18 11 38.5 6t32.5 -22t12 -45zM-77 596l2 54q-1 19 -11.5 27t-27.5 13l-1 -55q0 -18 10.5 -25.5t27.5 -13.5z" />
<glyph unicode="&#x2000;" horiz-adv-x="476" />
<glyph unicode="&#x2001;" horiz-adv-x="953" />
<glyph unicode="&#x2002;" horiz-adv-x="476" />
<glyph unicode="&#x2003;" horiz-adv-x="953" />
<glyph unicode="&#x2004;" horiz-adv-x="317" />
<glyph unicode="&#x2005;" horiz-adv-x="238" />
<glyph unicode="&#x2006;" horiz-adv-x="158" />
<glyph unicode="&#x2007;" horiz-adv-x="158" />
<glyph unicode="&#x2008;" horiz-adv-x="119" />
<glyph unicode="&#x2009;" horiz-adv-x="190" />
<glyph unicode="&#x200a;" horiz-adv-x="52" />
<glyph unicode="&#x2010;" horiz-adv-x="401" d="M334 223q-2 -2 -6.5 -6t-16.5 -4h-280q-10 0 -14 9t3 17l51 59q2 2 7 5.5t13 3.5h279q11 0 15 -9t-3 -17l-48 -58v0z" />
<glyph unicode="&#x2011;" horiz-adv-x="401" d="M334 223q-2 -2 -6.5 -6t-16.5 -4h-280q-10 0 -14 9t3 17l51 59q2 2 7 5.5t13 3.5h279q11 0 15 -9t-3 -17l-48 -58v0z" />
<glyph unicode="&#x2012;" horiz-adv-x="401" d="M334 223q-2 -2 -6.5 -6t-16.5 -4h-280q-10 0 -14 9t3 17l51 59q2 2 7 5.5t13 3.5h279q11 0 15 -9t-3 -17l-48 -58v0z" />
<glyph unicode="&#x2013;" horiz-adv-x="401" d="M330 224q-2 -3 -6.5 -7t-16.5 -4h-276q-10 0 -14 9t3 17l51 59q2 2 7 5.5t13 3.5h275q11 0 15 -9t-3 -17l-48 -57v0z" />
<glyph unicode="&#x2014;" horiz-adv-x="450" d="M387 224q-2 -3 -6.5 -7t-16.5 -4h-333q-10 0 -14 9t3 17l51 59q2 2 7 5.5t13 3.5h332q11 0 15 -9t-3 -17l-48 -57v0z" />
<glyph unicode="&#x2018;" horiz-adv-x="162" d="M99 614q7 5 12 3t8 -6q7 -10 -8 -23q-12 -11 -6.5 -24t28.5 -42q10 -10 -1 -21l-47 -43q-5 -4 -11 -4t-10 5l-35 39q-10 11 -10.5 23t4 22.5t11.5 18.5t12 12z" />
<glyph unicode="&#x2019;" horiz-adv-x="143" d="M52 457q-7 -5 -12 -3t-8 6q-7 10 8 23q12 11 6.5 24t-28.5 42q-5 5 -4.5 10.5t5.5 10.5l47 43q5 4 11 4t10 -5l35 -39q10 -11 10.5 -23t-4 -22.5t-11.5 -18.5t-12 -12z" />
<glyph unicode="&#x201a;" horiz-adv-x="157" d="M64 -55q-7 -5 -12 -3t-8 6q-7 10 8 23q11 10 6 24.5t-28 41.5q-5 5 -4.5 11t5.5 10l47 43q5 5 11 4.5t10 -5.5l34 -37q10 -11 11 -23t-3.5 -22.5t-11.5 -19.5t-12 -13z" />
<glyph unicode="&#x201c;" horiz-adv-x="309" d="M258 596q7 5 12 3t8 -6q7 -10 -8 -23q-12 -11 -6.5 -24t28.5 -42q10 -10 -1 -21l-47 -43q-5 -4 -11 -4t-10 5l-35 39q-10 11 -10.5 23t4 22.5t11.5 18.5t12 12zM103 596q7 5 12 3t8 -6q7 -10 -8 -23q-12 -11 -6.5 -24t28.5 -42q10 -10 -1 -21l-47 -43q-5 -4 -11 -4t-10 5 l-35 39q-10 11 -10.5 23t4 22.5t11.5 18.5t12 12z" />
<glyph unicode="&#x201d;" horiz-adv-x="319" d="M67 457q-7 -5 -12 -3t-8 6q-7 10 8 23q12 11 6.5 24t-28.5 42q-5 5 -4.5 10.5t5.5 10.5l47 43q5 4 11 4t10 -5l35 -39q10 -11 10.5 -23t-4 -22.5t-11.5 -18.5t-12 -12zM222 457q-7 -5 -12 -3t-8 6q-7 10 8 23q12 11 6.5 24t-28.5 42q-5 5 -4.5 10.5t5.5 10.5l47 43 q5 4 11 4t10 -5l35 -39q10 -11 10.5 -23t-4 -22.5t-11.5 -18.5t-12 -12z" />
<glyph unicode="&#x201e;" horiz-adv-x="157" d="M64 -55q-7 -5 -12 -3t-8 6q-7 10 8 23q11 10 6 24.5t-28 41.5q-5 5 -4.5 11t5.5 10l47 43q5 5 11 4.5t10 -5.5l34 -37q10 -11 11 -23t-3.5 -22.5t-11.5 -19.5t-12 -13z" />
<glyph unicode="&#x2022;" horiz-adv-x="263" d="M108 130l-78 86q-8 8 -7 19t9 19l86 78q8 8 19 7t19 -9l78 -86q8 -8 7.5 -19.5t-9.5 -19.5l-85 -77q-8 -8 -19.5 -7t-19.5 9z" />
<glyph unicode="&#x2026;" horiz-adv-x="431" d="M129 65q8 -12 -2 -22l-49 -41q-5 -4 -11 -3.5t-10 5.5l-40 48q-5 5 -4.5 11t5.5 10l48 42q5 5 11 4.5t10 -5.5zM272 65q8 -12 -2 -22l-49 -41q-5 -4 -11 -3.5t-10 5.5l-40 48q-5 5 -4.5 11t5.5 10l48 42q5 5 11 4.5t10 -5.5zM412 65q8 -12 -2 -22l-49 -41q-5 -4 -11 -3.5 t-10 5.5l-40 48q-5 5 -4.5 11t5.5 10l48 42q5 5 11 4.5t10 -5.5z" />
<glyph unicode="&#x202f;" horiz-adv-x="190" />
<glyph unicode="&#x2039;" horiz-adv-x="281" d="M164 20q-26 42 -62.5 80t-79.5 64q-11 7 -12 19t7 22l211 236q12 12 26 3q7 -5 8 -13.5t-5 -15.5l-137 -153q54 -17 91.5 -54t51.5 -92q5 -20 -9 -35l-63 -64q-6 -6 -14 -5t-13 8z" />
<glyph unicode="&#x203a;" horiz-adv-x="281" d="M113 444q26 -42 62.5 -80t79.5 -64q11 -7 12 -19t-7 -22l-211 -236q-12 -12 -26 -3q-7 5 -8 13.5t5 15.5l137 153q-54 17 -91.5 54t-51.5 92q-5 20 9 35l63 64q6 6 14 5t13 -8z" />
<glyph unicode="&#x205f;" horiz-adv-x="238" />
<glyph unicode="&#x20ac;" horiz-adv-x="607" d="M569 154q-45 -69 -110.5 -109t-137.5 -45q-48 3 -79.5 22.5t-51 50t-28.5 68.5t-12 77h-129q-9 0 -9 9v4q0 4 3 6l66 57q2 2 5 2h62v68h-105q-9 0 -9 9v3q0 4 3 6l66 57q2 2 5 2h42q12 63 38.5 116.5t67 92.5t95.5 61t125 22q51 0 84.5 -45.5t34.5 -141.5q0 -7 -4 -10 l-87 -76q-4 -3 -8.5 -0.5t-5.5 7.5q-6 91 -40.5 135.5t-89.5 44.5q-47 0 -70 -20.5t-32.5 -51t-9.5 -67v-67.5h219q7 0 8.5 -6t-2.5 -10l-73 -59q-2 -2 -5 -2h-146v-68h196q7 0 8.5 -6t-2.5 -10l-71 -60q-2 -2 -5 -2h-118q14 -57 53.5 -90t90.5 -33q38 0 76 18t73 56 q6 8 16 -1q5 -5 5 -10q0 -3 -2 -4z" />
<glyph unicode="&#x2122;" horiz-adv-x="581" d="M580 445q7 -7 0 -14l-30 -23q-5 -7 -13 -1l-29 25q-2 1 -5 5q-2 3 -4 7t-3 10v219q0 5 -4 7l-28 23q-2 0 -2 2l-11 -9q2 -6 2 -10v-236q0 -4 -2 -8q-1 -2 -2 -3l-36 -30q-5 -3 -11 -1q-5 3 -5 9v256q0 5 -4 7l-28 23q-2 0 -2 2l-10 -9v-246q0 -8 -2 -10l-4 -4l-35 -29 q-5 -4 -10 -1.5t-5 8.5v258q0 4 -4 8l-33 27q-3 2 -4 5q-2 5 4 11l27 22q4 4 10 4q3 0 4 -2l38 -32l5 -5l42 35q2 2 7 2.5t8 -2.5l37 -29q2 -2 3 -2.5t2 -2.5l42 34q2 2 7 2.5t8 -2.5l37 -29q15 -12 15 -30v-214q0 -4 3 -7zM248 760q3 -6 -4 -13l-60 -51q-2 -2 -4 -2h-44 v-213q0 -4 4 -8l28 -24l14 12q2 2 6 1.5t6 -2.5q5 -7 0 -13l-47 -39q-2 -2 -7 -3t-8 2l-37 31q-15 12 -15 29v213v13v1h-55l-12 -11q-6 -6 -13 2q-3 4 -1.5 8t4.5 7l54 45q5 5 12 5h150l16 13q8 6 13 -3z" />
<glyph unicode="&#x25fc;" horiz-adv-x="450" d="M0 450h450v-450h-450v450z" />
</font>
</defs>
</svg>
