<?xml version="1.0" encoding="utf-8"?>
<!-- Generator: Adobe Illustrator 27.6.1, SVG Export Plug-In . SVG Version: 6.00 Build 0)  -->
<svg version="1.1" id="Layer_1" xmlns="http://www.w3.org/2000/svg" xmlns:xlink="http://www.w3.org/1999/xlink" x="0px" y="0px"
	 viewBox="0 0 50 62.5" style="enable-background:new 0 0 50 62.5;" xml:space="preserve">
<path d="M26.1,4.6c-2.6,0-4.7,2.1-4.7,4.7s2.1,4.7,4.7,4.7s4.7-2.1,4.7-4.7S28.7,4.6,26.1,4.6z M37.6,10.3c-0.3,0-0.5,0.1-0.7,0.3
	l-2,2l-1-1.1l-1.4,1.4l1,1.1l-1.9,1.9c-0.4,0.4-0.4,1,0,1.4l2.5,2.4c0.2,0.2,0.5,0.3,0.7,0.3s0.5-0.1,0.7-0.3l5.3-5.3
	c0.4-0.4,0.4-1,0-1.4l-2.5-2.5C38.1,10.4,37.8,10.3,37.6,10.3z M25.4,15.7c-1.1,0-2.2,0.4-3,1.3l-10,10H4c-2.5,0-4.4,2.3-3.9,4.8
	L2.8,45c0.2,1.2,1.2,2,2.4,2c1.6,0,2.7-1.4,2.4-3L5.1,32h4.7C9.3,32.5,9,33.2,9,34c0,1.6,1.4,3,3,3h9c0.3,0,0.5-0.1,0.7-0.3
	l10.2-10.2l1.7,0.8c0.3,0.2,0.7,0.3,1.1,0.3c0.5,0,1-0.2,1.3-0.5l6-6.1c0.7-0.8,0.7-2,0-2.7s-1.9-0.7-2.6,0l-4.8,4.8L28.4,17
	C27.6,16.1,26.5,15.7,25.4,15.7z M46.6,19.2c-0.3,0-0.5,0.1-0.7,0.3l-5.3,5.3c-0.2,0.2-0.3,0.4-0.3,0.7s0.1,0.5,0.3,0.7l2.5,2.5
	c0.2,0.2,0.5,0.3,0.7,0.3s0.5-0.1,0.7-0.3l1.8-1.8l0.9,0.9l1.4-1.4l-0.9-1l2.1-2.1c0.2-0.2,0.3-0.5,0.3-0.7s-0.1-0.5-0.3-0.7
	l-2.5-2.5C47.1,19.3,46.8,19.2,46.6,19.2z M28,24.5l2.1,1v0L20.6,35H12c-0.6,0-1-0.4-1-1s0.4-1,1-1h7c0.3,0,0.5-0.1,0.7-0.3L28,24.5
	z"/>
</svg>
