<?xml version="1.0" encoding="utf-8"?>
<!-- Generator: Adobe Illustrator 27.6.1, SVG Export Plug-In . SVG Version: 6.00 Build 0)  -->
<svg version="1.1" id="Layer_1" xmlns="http://www.w3.org/2000/svg" xmlns:xlink="http://www.w3.org/1999/xlink" x="0px" y="0px"
	 viewBox="0 0 50 62.5" style="enable-background:new 0 0 50 62.5;" xml:space="preserve">
<path d="M18,2c-5,0-9,4-9,9s4,9,9,9s9-4,9-9S23,2,18,2z M18,9c1.1,0,2,0.9,2,2s-0.9,2-2,2s-2-0.9-2-2S16.9,9,18,9z M15,21.6V33
	c0,1.1-0.1,2,1,2h27v10.5c0,1.4,1.1,2.5,2.5,2.5s2.5-1.1,2.5-2.5V33c0-2.2-1.8-4-4-4h-5c-4.9,0-10.8-2-15-2h-4v-5.2
	c-0.6,0.1-1.3,0.2-2,0.2C17,22,16,21.8,15,21.6z M7.5,24C4.4,24,2,26.4,2,29.5S4.4,35,7.5,35s5.5-2.4,5.5-5.5S10.6,24,7.5,24z M3,37
	c-0.6,0-1,0.4-1,1v1c0,0.6,0.4,1,1,1h36c0.6,0,1-0.4,1-1v-1c0-0.6-0.4-1-1-1H3z"/>
</svg>
