<?xml version="1.0" encoding="utf-8"?>
<!-- Generator: Adobe Illustrator 27.6.1, SVG Export Plug-In . SVG Version: 6.00 Build 0)  -->
<svg version="1.1" id="Layer_1" xmlns="http://www.w3.org/2000/svg" xmlns:xlink="http://www.w3.org/1999/xlink" x="0px" y="0px"
	 viewBox="0 0 50 62.5" style="enable-background:new 0 0 50 62.5;" xml:space="preserve">
<path d="M24.1,0c-2.8,0-5,2.2-5,5s2.2,5,5,5s5-2.2,5-5S26.9,0,24.1,0z M22,11.5c-2,0-3.5,1.5-3.5,3.5v1l0,0.1c0,0,0,0.1,0,0.1
	l2.9,9.4c0.3,1.1,1.3,1.8,2.4,1.8c0.2,0,0.3,0,0.5-0.1l8-1.5c-0.8-0.9-1.2-2.1-1.3-3.3L28.2,23l-3,0.5c-0.1,0-0.1,0-0.2,0
	c-0.4,0-0.9-0.3-1-0.8l-1.2-4.5c0-0.1,0-0.2,0-0.3c0,0,0-0.1,0-0.2c0,0,0-0.1,0-0.1c0-0.1,0.1-0.2,0.2-0.3c0.1-0.1,0.3-0.3,0.5-0.3
	c0.5-0.1,1.1,0.2,1.2,0.7l1,3.6l2.8-0.5V17c0-3.1-2.4-5.5-5.5-5.5H22z M36.9,18.1c-2.2,0-4,1.8-4,4s1.8,4,4,4s4-1.8,4-4
	S39.1,18.1,36.9,18.1z M18.5,22.9v2.9c0,2.2,0.7,4.3,1.9,6.1l5.1,7.2v8.4c0,1.4,1.1,2.5,2.5,2.5s2.5-1.1,2.5-2.5v-9.6
	c0-0.1,0-0.1,0-0.2l-3.1-9l-2.7,0.5c-0.3,0.1-0.6,0.1-0.9,0.1c-2,0-3.7-1.3-4.3-3.2L18.5,22.9z M18.7,32.9l-1.6,14.3
	c-0.1,0.7,0.1,1.3,0.6,1.8c0.4,0.5,1,0.8,1.8,0.9h0.2c1.3,0,2.4-1,2.5-2.2l1-8.6L18.8,33C18.7,33,18.7,33,18.7,32.9z"/>
</svg>
