<?xml version="1.0" encoding="utf-8"?>
<!-- Generator: Adobe Illustrator 27.6.1, SVG Export Plug-In . SVG Version: 6.00 Build 0)  -->
<svg version="1.1" id="Layer_1" xmlns="http://www.w3.org/2000/svg" xmlns:xlink="http://www.w3.org/1999/xlink" x="0px" y="0px"
	 viewBox="0 0 50 62.5" style="enable-background:new 0 0 50 62.5;" xml:space="preserve">
<path d="M24.5,3C22,3,20,5,20,7.5s2,4.5,4.5,4.5S29,10,29,7.5S27,3,24.5,3z M20.5,14c-3,0-5.5,2.5-5.5,5.5V32c0,1.1,0.9,2,2,2
	s2-0.9,2-2V22c0-0.6,0.4-1,1-1s1,0.4,1,1v8h7v-8c0-0.6,0.4-1,1-1s1,0.4,1,1v10c0,1.1,0.9,2,2,2s2-0.9,2-2V19.5c0-3-2.5-5.5-5.5-5.5
	H20.5z M6,23c-0.6,0-1,0.5-1,1v6H4c-0.6,0-1,0.4-1,1c0,0.6,0.4,1,1,1c0,0,0,0,0,0h1v6c0,0.6,0.4,1,1,1c0.6,0,1-0.4,1-1c0,0,0,0,0,0
	v-6.8c0-0.1,0-0.2,0-0.3V24C7,23.4,6.6,23,6,23C6,23,6,23,6,23z M10,23c-0.6,0-1,0.5-1,1v14c0,0.6,0.4,1,1,1c0.6,0,1-0.4,1-1
	c0,0,0,0,0,0v-6h2v-2h-2v-6C11,23.4,10.6,23,10,23C10,23,10,23,10,23z M39,23c-0.6,0-1,0.5-1,1v6h-2v2h2v6c0,0.6,0.4,1,1,1
	c0.6,0,1-0.4,1-1c0,0,0,0,0,0V24C40,23.4,39.6,23,39,23C39,23,39,23,39,23z M43,23c-0.6,0-1,0.5-1,1v6.8c0,0.1,0,0.2,0,0.3V38
	c0,0.6,0.4,1,1,1c0.6,0,1-0.4,1-1c0,0,0,0,0,0v-6h1c0.6,0,1-0.4,1-1c0-0.6-0.4-1-1-1c0,0,0,0,0,0h-1v-6C44,23.4,43.6,23,43,23
	C43,23,43,23,43,23z M21,32c0,1.9-1.4,3.6-3.2,3.9L16.1,44c0,0.2-0.1,0.4-0.1,0.5c0,1.2,0.8,2.2,2,2.4c0.2,0,0.4,0.1,0.5,0.1
	c1.2,0,2.2-0.8,2.4-2l2.4-11h2.4l2.4,11c0.3,1.2,1.3,2,2.4,2c0.2,0,0.4,0,0.5-0.1c1.2-0.3,2-1.3,2-2.4c0-0.2,0-0.3-0.1-0.5l-1.7-8.1
	c-1.8-0.4-3.2-2-3.2-3.9H21z"/>
</svg>
