<?xml version="1.0" encoding="utf-8"?>
<!-- Generator: Adobe Illustrator 27.6.1, SVG Export Plug-In . SVG Version: 6.00 Build 0)  -->
<svg version="1.1" id="Layer_1" xmlns="http://www.w3.org/2000/svg" xmlns:xlink="http://www.w3.org/1999/xlink" x="0px" y="0px"
	 viewBox="0 0 50 62.5" style="enable-background:new 0 0 50 62.5;" xml:space="preserve">
<path d="M25,4c-0.6,0-1,0.5-1,1v6c0,0.6,0.4,1,1,1c0.6,0,1-0.4,1-1c0,0,0,0,0,0V5C26,4.4,25.6,4,25,4C25,4,25,4,25,4z M16,5
	c-0.6,0-1,0.4-1,1c0,0.1,0,0.3,0.1,0.4l2,5c0.2,0.5,0.8,0.8,1.3,0.6s0.8-0.8,0.6-1.3c0,0,0-0.1,0-0.1l-2-5C16.8,5.2,16.4,5,16,5z
	 M34,5c-0.4,0-0.8,0.3-0.9,0.6l-2,5c-0.2,0.5,0,1.1,0.5,1.3s1.1,0,1.3-0.5c0,0,0-0.1,0-0.1l2-5c0.2-0.5,0-1.1-0.5-1.3
	C34.3,5,34.1,5,34,5z M10,11c-1.1,0-2,0.9-2,2v22c0,1.1,0.9,2,2,2s2-0.9,2-2v-9h3h2v-4h-5v-9C12,11.9,11.1,11,10,11z M41,11
	c-1.1,0-2,0.9-2,2v9h-4v4h4v9c0,1.1,0.9,2,2,2s2-0.9,2-2V13C43,11.9,42.1,11,41,11z M4,15c-1.1,0-2,0.9-2,2v14c0,1.1,0.9,2,2,2
	s2-0.9,2-2V17C6,15.9,5.1,15,4,15z M24,15c-1.1,0-2,0.9-2,2v1c0-1.1-0.9-2-2-2s-2,0.9-2,2v0.5V22v5.5c0,0.3-0.2,0.5-0.5,0.5
	S17,27.8,17,27.5V27h-2c0.1,2.3,1.9,6.3,5,6.9L19,46h13l-1-12.3c1.8-0.7,3-3.4,3-5.4V26v-4v-2.5V19c0-1.1-0.9-2-2-2s-2,0.9-2,2v-1
	c0-1.1-0.9-2-2-2s-2,0.9-2,2v-1C26,15.9,25.1,15,24,15z M47,15c-1.1,0-2,0.9-2,2v14c0,1.1,0.9,2,2,2s2-0.9,2-2V17
	C49,15.9,48.1,15,47,15z"/>
</svg>
