<?xml version="1.0" encoding="utf-8"?>
<!-- Generator: Adobe Illustrator 27.6.1, SVG Export Plug-In . SVG Version: 6.00 Build 0)  -->
<svg version="1.1" id="Layer_1" xmlns="http://www.w3.org/2000/svg" xmlns:xlink="http://www.w3.org/1999/xlink" x="0px" y="0px"
	 viewBox="0 0 100 125" style="enable-background:new 0 0 100 125;" xml:space="preserve">
<path d="M54.6,43L54.6,43c-0.4,0.5-0.8,1-1.3,1.7c0,0,0,0.1-0.1,0.1c-0.6,1-1,2.1-1.2,3.2l0,0l-7.9-3.7l-1.8-1
	c-1-0.5-1.3-1.8-0.8-2.7c7.7-13.4,7.8-14,9.2-14.8c4.3-2.8,9.2,2.1,6.7,6.4L52,41.5L54.6,43z"/>
<path d="M50.7,86h-3.5C46,86,45,85,45,83.8l-0.9-23.9L26.8,45.1c-3-2.6-2.6-7.4,0.8-9.4L50.2,22c1.6-1,3.5-1.2,5.4-0.7
	c3.3,1,4.5,3.4,5.5,5c1.2,1.9,1.5,4.2,0.9,6.3c-0.5,1.8-1.7,3.3-3.4,4.2l-4.1,2.1l3.7-6.4c0.5-0.8,0.7-1.8,0.7-2.8
	c0-5.7-7.6-7.7-10.4-2.8c0,0-8.6,15-8.7,15c-0.3,0.5-0.2,0.9,0.1,1.1l12.5,10.5c0.1,0.4,0.3,0.7,0.5,1.1v29.1C53,85,52,86,50.7,86z"
	/>
<path d="M67.8,29c-4.1,0-7.5-3.4-7.5-7.5s3.4-7.5,7.5-7.5s7.5,3.4,7.5,7.5S71.9,29,67.8,29z"/>
<g>
	<circle cx="62.4" cy="50" r="2.2"/>
	<path d="M55.6,43.2C51,47.7,52,55.4,57.8,58.5C64.1,62,72,57.4,72,50C72,41.5,61.7,37.2,55.6,43.2z M62.4,53c-1.6,0-3-1.3-3-3
		s1.3-3,3-3c1.6,0,3,1.3,3,3S64,53,62.4,53z"/>
</g>
</svg>
