<?xml version="1.0" encoding="utf-8"?>
<!-- Generator: Adobe Illustrator 27.6.1, SVG Export Plug-In . SVG Version: 6.00 Build 0)  -->
<svg version="1.1" id="Layer_1" xmlns="http://www.w3.org/2000/svg" xmlns:xlink="http://www.w3.org/1999/xlink" x="0px" y="0px"
	 viewBox="0 0 50 62.5" style="enable-background:new 0 0 50 62.5;" xml:space="preserve">
<path d="M34.5,2.9c-1.6,0-2.9,0.8-3.7,2C29.5,3.7,26.1,1.2,22,5c0,0,3,3.6,8.2,1.1C30.1,6.5,30,7,30,7.4c0,2.5,2,4.5,4.5,4.5
	c2.5,0,4.5-2,4.5-4.5C39,5,36.9,2.9,34.5,2.9z M20,9.9c-0.4,0-0.8,0.1-1.1,0.3l0,0l-6.9,5c-0.6,0.4-1,1-1,1.7c0,1.1,0.9,2,2,2
	c0.5,0,0.9-0.2,1.3-0.5v0l6-4.3l4.4,1.4l-4.9,8v0c-0.5,0.7-0.8,1.5-0.8,2.3c0,1.5,0.9,2.9,2.2,3.6l7.5,4.6L27,42.9c0,0,0,0,0,0v0
	c0,0.2,0,0.3,0,0.5c0,1.4,1.1,2.5,2.5,2.5c1.2,0,2.2-0.9,2.5-2h0l2-10.7l0,0c0-0.1,0-0.2,0-0.3c0-0.6-0.2-1.1-0.7-1.5l0,0l-5.4-4.8
	l4.7-9.2l0,0c0.3-0.5,0.4-1,0.4-1.5c0-1.2-0.7-2.3-1.8-2.8l0,0l-2.5-1.4L20.5,10l0,0C20.3,10,20.1,9.9,20,9.9z M34.2,18.7l-2.2,4.4
	l1.2,2.7l0,0c0.3,0.7,1,1.2,1.8,1.2h7c1.1,0,2-0.9,2-2s-0.9-2-2-2h-6L34.2,18.7z M17.5,28.4l-2.3,3.6H7.5c-1.4,0-2.5,1.1-2.5,2.5
	s1.1,2.5,2.5,2.5h8.4c1.3,0,2.5-0.6,3.3-1.7l2.3-3.2c-0.8-0.5-1.4-0.9-1.4-0.9C18.9,30.5,18,29.5,17.5,28.4z"/>
</svg>
