<?xml version="1.0" encoding="utf-8"?>
<!-- Generator: Adobe Illustrator 27.6.1, SVG Export Plug-In . SVG Version: 6.00 Build 0)  -->
<svg version="1.1" id="Layer_1" xmlns="http://www.w3.org/2000/svg" xmlns:xlink="http://www.w3.org/1999/xlink" x="0px" y="0px"
	 viewBox="0 0 100 125" style="enable-background:new 0 0 100 125;" xml:space="preserve">
<g>
	<path d="M50,23.5c2.6,0,4.8,2.1,4.8,4.8c0,2.6-2.1,4.8-4.8,4.8c-2.6,0-4.8-2.1-4.8-4.8C45.2,25.7,47.4,23.5,50,23.5z"/>
	<rect x="22.5" y="17.9" width="1.5" height="1.5"/>
	<path d="M25.5,24.3h-0.1c-0.5,0-1-0.4-1-1v-3.6v-2.2v-4.2c0-0.5,0.4-1,1-1h0.1c0.5,0,1,0.4,1,1v10C26.5,23.9,26,24.3,25.5,24.3z"/>
	<path d="M28.9,23.4c0,0.5-0.4,1-1,1h-0.2c-0.5,0-1-0.4-1-1v-10c0-0.5,0.4-1,1-1H28c0.5,0,1,0.4,1,1v10H28.9z"/>
	<polygon points="29.3,19.4 29.3,17.9 32.5,17.9 32.7,19.4 	"/>
	<polygon points="63.3,17.9 63,19.4 36.4,19.4 36.1,17.9 	"/>
	<path d="M64.9,30.4l-7.5,9.5l-1.3,13.9l0,0l2.6,12.4l0.2,1l2.2,20l-3.9,0.4l-4.8-20.8L50.5,55h-0.9l-1.9,11.8l-4.8,20.8L39,87.2
		l2.2-20L44,53.8l0,0l-1.5-13.3l-6.3-8l-1.6-2l-1.4-10.7l0,0l-0.1-1l-0.4-2.9l2.5-0.6l2.7,12.6l0,0l6.6,7.1l4.4-1.4
		c0.7-0.2,1.5-0.2,2.2,0l4,1.2l6.4-6.9l0,0l2.7-12.7l2.5,0.6L66.4,19l-0.1,0.8l0,0L64.9,30.4z"/>
	<polygon points="70.7,19.4 66.6,19.4 66.7,18.8 66.8,17.9 70.7,17.9 	"/>
	<path d="M72.2,24.3H72c-0.5,0-1-0.4-1-1v-10c0-0.5,0.4-1,1-1h0.2c0.5,0,1,0.4,1,1v10C73.2,23.9,72.7,24.3,72.2,24.3z"/>
	<path d="M75.6,23.4c0,0.5-0.4,1-1,1h-0.2c-0.5,0-1-0.4-1-1v-10c0-0.5,0.4-1,1-1h0.2c0.5,0,1,0.4,1,1v4.2v2.2V23.4z"/>
	<rect x="76" y="17.9" width="1.5" height="1.5"/>
</g>
</svg>
