<?xml version="1.0" encoding="utf-8"?>
<!-- Generator: Adobe Illustrator 27.6.1, SVG Export Plug-In . SVG Version: 6.00 Build 0)  -->
<svg version="1.1" id="Layer_1" xmlns="http://www.w3.org/2000/svg" xmlns:xlink="http://www.w3.org/1999/xlink" x="0px" y="0px"
	 viewBox="0 0 50 62.5" style="enable-background:new 0 0 50 62.5;" xml:space="preserve">
<path d="M16.6,3c-0.3,0-0.5,0.1-0.7,0.3l-2.6,2.6c-0.4,0.4-0.4,1,0,1.4l5.4,5.4c0.2,0.2,0.5,0.3,0.7,0.3s0.5-0.1,0.7-0.3l2.6-2.6
	c0.4-0.4,0.4-1,0-1.4l-2-2L22,5.5L20.5,4l-1.3,1.3l-2-2C17.1,3.1,16.8,3,16.6,3z M30.5,3C28,3,26,5,26,7.5s2,4.5,4.5,4.5
	S35,10,35,7.5S33,3,30.5,3z M12,9c-0.5,0-1,0.2-1.4,0.6c-0.8,0.8-0.8,2,0,2.8l6,6C17,18.8,17.5,19,18,19h7l-3,15.8
	c-0.1,0.3,0,0.6,0.2,0.8S22.7,36,23,36h14c0.3,0,0.6-0.1,0.8-0.4c0.2-0.2,0.3-0.5,0.2-0.8l-0.4-2C37.1,32.9,36.5,33,36,33
	c-1.9,0-3.6-0.7-4.9-2.1C29.7,29.6,29,27.9,29,26s0.7-3.6,2.1-4.9l1.2-1.2l3.5-3.5c-1.2-0.9-2.6-1.4-4.1-1.4H18.8l-5.4-5.4
	C13,9.2,12.5,9,12,9z M7.6,12c-0.3,0-0.5,0.1-0.7,0.3l-2.6,2.6c-0.4,0.4-0.4,1,0,1.4l2,2L5,19.5L6.5,21l1.3-1.3l2,2
	c0.2,0.2,0.5,0.3,0.7,0.3c0.3,0,0.5-0.1,0.7-0.3l2.6-2.6c0.4-0.4,0.4-1,0-1.4l-5.4-5.4C8.1,12.1,7.8,12,7.6,12z M41,16
	c-1.3,0-2.5,0.5-3.5,1.5l-5,5c-0.7,0.7-1.2,1.6-1.4,2.5C31,25.3,31,25.7,31,26s0,0.7,0.1,1c0.2,0.9,0.6,1.8,1.4,2.5
	c1,1,2.3,1.5,3.5,1.5s2.6-0.5,3.5-1.5l5-5c1-1,1.4-2.2,1.5-3.5c0-1.3-0.5-2.6-1.5-3.6C43.6,16.5,42.3,16,41,16z M40.9,18
	c0.9,0,1.7,0.6,2,1.5c0.4,1.3-0.3,2.7-1.6,3.3c-0.3,0.1-0.7,0.2-1,0.2c-0.9,0-1.8-0.5-2.1-1.5c-0.2-0.6-0.1-1.2,0.1-1.7
	c0-0.1,0.2-0.4,0.7-0.9C39.4,18.4,40,18,40.9,18z M25,38v7c0,1.1,0.9,2,2,2s2-0.9,2-2v-7H25z M31,38v7c0,1.1,0.9,2,2,2s2-0.9,2-2v-7
	H31z"/>
</svg>
