<svg xmlns="http://www.w3.org/2000/svg" fill="#000000" viewBox="0 0 50 62.5" x="0px" y="0px"><path d="M 25 3 C 21.132813 3 18 6.132813 18 10 C 18 13.867188 21.132813 17 25 17 C 28.867188 17 32 13.867188 32 10 C 32 6.132813 28.867188 3 25 3 Z M 18 21 C 14.75 21 12.527344 23.273438 12.0625 23.886719 C 10.285156 26.242188 6.054688 33.160156 6.054688 33.160156 C 4.644531 35.578125 4.632813 37.460938 6.585938 39.414063 L 11.730469 44.5625 C 12.785156 45.621094 14.5 45.621094 15.558594 44.5625 C 15.859375 44.261719 16.0625 43.90625 16.191406 43.53125 L 16.5 48 L 33.5 48 L 33.78125 43.8125 C 33.914063 44.136719 34.109375 44.4375 34.375 44.703125 C 35.429688 45.757813 37.144531 45.757813 38.203125 44.703125 L 43.414063 39.414063 C 45.367188 37.460938 45.355469 35.578125 43.945313 33.160156 C 43.945313 33.160156 39.714844 26.242188 37.9375 23.886719 C 37.472656 23.273438 35.25 21 32 21 L 30.953125 21 L 26.503906 31.667969 L 27.5625 32.03125 C 27.90625 32.144531 28.082031 32.503906 27.960938 32.832031 L 26.183594 37.582031 C 26.058594 37.910156 25.683594 38.078125 25.339844 37.964844 L 22.4375 36.96875 C 22.09375 36.855469 21.914063 36.496094 22.035156 36.167969 L 23.613281 31.957031 L 19.027344 21 Z M 20.921875 21 L 25 30.730469 L 29.0625 21 Z M 14.996094 30 L 16 41.34375 C 15.878906 41.128906 15.738281 40.917969 15.558594 40.734375 L 10.707031 35.878906 Z M 35.003906 30 L 39.292969 35.878906 L 34.375 40.875 C 34.226563 41.019531 34.105469 41.179688 34 41.347656 Z"/><text x="0" y="65" fill="#000000" font-size="5px" font-weight="bold" font-family="'Helvetica Neue', Helvetica, Arial-Unicode, Arial, Sans-serif">Created by Sebastian Schuldt</text><text x="0" y="70" fill="#000000" font-size="5px" font-weight="bold" font-family="'Helvetica Neue', Helvetica, Arial-Unicode, Arial, Sans-serif">from the Noun Project</text></svg>