<?xml version="1.0" encoding="utf-8"?>
<!-- Generator: Adobe Illustrator 27.6.1, SVG Export Plug-In . SVG Version: 6.00 Build 0)  -->
<svg version="1.1" id="Layer_1" xmlns="http://www.w3.org/2000/svg" xmlns:xlink="http://www.w3.org/1999/xlink" x="0px" y="0px"
	 viewBox="0 0 50 62.5" style="enable-background:new 0 0 50 62.5;" xml:space="preserve">
<path d="M25,3c-3.9,0-7,3.1-7,7s3.1,7,7,7s7-3.1,7-7S28.9,3,25,3z M18,21c-3.2,0-5.5,2.3-5.9,2.9c-1.8,2.4-6,9.3-6,9.3
	c-1.4,2.4-1.4,4.3,0.5,6.3l5.1,5.1c1.1,1.1,2.8,1.1,3.8,0c0.3-0.3,0.5-0.7,0.6-1l0.3,4.5h17l0.3-4.2c0.1,0.3,0.3,0.6,0.6,0.9
	c1.1,1.1,2.8,1.1,3.8,0l5.2-5.3c2-2,1.9-3.8,0.5-6.3c0,0-4.2-6.9-6-9.3C37.5,23.3,35.2,21,32,21h-1l-4.4,10.7l1.1,0.4
	c0.3,0.1,0.5,0.5,0.4,0.8l-1.8,4.8c-0.1,0.3-0.5,0.5-0.8,0.4l-2.9-1c-0.3-0.1-0.5-0.5-0.4-0.8l1.6-4.2L19,21H18z M20.9,21l4.1,9.7
	l4.1-9.7H20.9z M15,30l1,11.3c-0.1-0.2-0.3-0.4-0.4-0.6l-4.9-4.9L15,30z M35,30l4.3,5.9l-4.9,5c-0.1,0.1-0.3,0.3-0.4,0.5L35,30z"/>
</svg>
