<?xml version="1.0" encoding="utf-8"?>
<!-- Generator: Adobe Illustrator 27.6.1, SVG Export Plug-In . SVG Version: 6.00 Build 0)  -->
<svg version="1.1" id="Layer_1" xmlns="http://www.w3.org/2000/svg" xmlns:xlink="http://www.w3.org/1999/xlink" x="0px" y="0px"
	 viewBox="0 0 50 62.5" style="enable-background:new 0 0 50 62.5;" xml:space="preserve">
<path d="M49,18c0,2.2-1.8,4-4,4s-4-1.8-4-4s1.8-4,4-4S49,15.8,49,18z M46.5,31H39v-8.7c0-2.7-2.5-4.6-5.1-3.8l-12.8,3.7
	c-1.9,0.6-3.1,2.3-3.1,4.3v0.1L2.7,31.1c-0.6,0.2-1.2,0.6-1.5,1.2c-0.3,0.6-0.4,1.3-0.2,1.9c0.4,1.3,1.8,2.1,3.1,1.7L34,27v6
	c0,1.7,1.3,3,3,3h9.4c1.3,0,2.5-0.9,2.6-2.2C49.1,32.3,48,31,46.5,31z"/>
</svg>
