<?xml version="1.0" encoding="utf-8"?>
<!-- Generator: Adobe Illustrator 27.6.1, SVG Export Plug-In . SVG Version: 6.00 Build 0)  -->
<svg version="1.1" id="Layer_1" xmlns="http://www.w3.org/2000/svg" xmlns:xlink="http://www.w3.org/1999/xlink" x="0px" y="0px"
	 viewBox="0 0 50 62.5" style="enable-background:new 0 0 50 62.5;" xml:space="preserve">
<path d="M25,0c-2.5,0-4.5,2-4.5,4.5S22.5,9,25,9s4.5-2,4.5-4.5S27.5,0,25,0z M39.6,8.3c-0.7,0.1-1.2,0.5-1.5,1.1L37.8,10H12.2
	L12,9.5c-0.4-0.8-1.4-1.3-2.2-1c-0.9,0.2-1.4,1.1-1.3,2c0,0,0,0.1,0,0.1c0,0.2,0.1,0.3,0.2,0.5L9.1,12l3.6,7.4
	c0.3,0.6,1,0.8,1.6,0.5l5.8-3V26l-2,11.1c-0.1,0.6,0,1.1,0.3,1.6l5,9c0.5,0.8,1.3,1.3,2.2,1.3c0.4,0,0.8-0.1,1.2-0.3
	c1.2-0.7,1.6-2.2,1-3.4L27,43.9L23.1,37l0.2-1l1.7-7l2.7,5.8l-2.1,2.5l2.4,4.3l4.3-4.3c0.7-0.7,0.9-1.6,0.6-2.5L30,26v-9.2l5.8,3
	c0.6,0.3,1.3,0.1,1.6-0.5l4-8.3c0.1-0.2,0.1-0.3,0.2-0.5c0,0,0,0,0-0.1c0.1-0.9-0.4-1.7-1.2-2C40.1,8.3,39.8,8.3,39.6,8.3z M0,10v2
	h6.9c-0.3-0.6-0.4-1.3-0.4-2H0z M43.6,10c0,0.6-0.1,1.3-0.4,1.9L43.1,12H50v-2H43.6z M13.2,12h5.1l-3.6,2.8L13.2,12z M31.8,12h5
	l-1.4,2.7L31.8,12z"/>
</svg>
