<?xml version="1.0" encoding="utf-8"?>
<!-- Generator: Adobe Illustrator 27.6.1, SVG Export Plug-In . SVG Version: 6.00 Build 0)  -->
<svg version="1.1" id="Layer_1" xmlns="http://www.w3.org/2000/svg" xmlns:xlink="http://www.w3.org/1999/xlink" x="0px" y="0px"
	 viewBox="0 0 50 62.5" style="enable-background:new 0 0 50 62.5;" xml:space="preserve">
<path d="M16.5,9C14,9,12,11,12,13.5s2,4.5,4.5,4.5s4.5-2,4.5-4.5S19,9,16.5,9z M27.2,9c-2.4,0-4.4,1.9-4.2,4.3
	c0,0.7,0.2,1.3,0.5,1.9c0.3,0.6,5.7,8.9,5.7,8.9l-5.7,5.7c-0.7,0.7-0.8,1.8-0.2,2.6c0.4,0.4,0.9,0.7,1.4,0.7s1-0.2,1.3-0.5l7-7
	c0.6-0.6,0.8-1.5,0.4-2.2L31,18h11l-0.8,10c-0.1,0.6-0.1,1.3,0.1,1.9l3.2,11.3c0.3,0.9,1.1,1.7,2.1,1.8c1.7,0.2,3-1.5,2.5-3.1
	l-2.9-10.4c-0.1-0.4-0.1-0.7,0-1.1C46.1,28.4,50,15.8,50,15v-1c0-2.8-2.2-5-5-5H27.2z M22,21.8c-0.3,0-0.5,0.1-0.7,0.3l-1.8,1.8
	l-1.2-1.2L17,24.1l1.2,1.2L16,27.4c-0.2,0.2-0.3,0.4-0.3,0.7s0.1,0.5,0.3,0.7l2.4,2.4c0.2,0.2,0.5,0.3,0.7,0.3s0.5-0.1,0.7-0.3
	l5.3-5.3c0.2-0.2,0.3-0.5,0.3-0.7s-0.1-0.5-0.3-0.7l-2.4-2.4C22.6,21.9,22.3,21.8,22,21.8z M30.9,30.7c-0.3,0-0.5,0.1-0.7,0.3
	l-5.3,5.3c-0.4,0.4-0.4,1,0,1.4l2.4,2.4c0.2,0.2,0.5,0.3,0.7,0.3s0.5-0.1,0.7-0.3l2-2l1,1.1l1.5-1.4l-1-1.1l1.9-1.9
	c0.2-0.2,0.3-0.5,0.3-0.7s-0.1-0.5-0.3-0.7L31.6,31C31.4,30.8,31.2,30.7,30.9,30.7z"/>
</svg>
