<?xml version="1.0" encoding="utf-8"?>
<!-- Generator: Adobe Illustrator 27.6.1, SVG Export Plug-In . SVG Version: 6.00 Build 0)  -->
<svg version="1.1" id="Layer_1" xmlns="http://www.w3.org/2000/svg" xmlns:xlink="http://www.w3.org/1999/xlink" x="0px" y="0px"
	 viewBox="0 0 100 125" style="enable-background:new 0 0 100 125;" xml:space="preserve">
<g>
	<path d="M53.5,15.7c6.2,1.5,11,6.5,12.4,12.7c1.8-1.8,2.7-4.2,2.6-6.8l0,0c-0.3-4.4-3.8-8-8.2-8.3C57.7,13.1,55.3,14,53.5,15.7z"/>
</g>
<path d="M39.2,43.8c10.1,8.9,26.3,1.7,26.3-11.9c0-7.7-5.5-14.1-12.8-15.5c-9.7-2-18.7,5.3-18.9,15C33.6,36.2,35.6,40.7,39.2,43.8z
	 M49.6,28.3c2,0,3.6,1.6,3.6,3.6s-1.6,3.6-3.6,3.6S46,33.9,46,31.9S47.6,28.3,49.6,28.3z"/>
<circle cx="49.6" cy="31.9" r="2.8"/>
<g>
	<path d="M52.8,50.8l1.6-3c-5.3,1.6-11,0.4-15.3-3.1l-5.6,12.9l4.9-1.7L52.8,50.8z"/>
	<path d="M61.2,52.2c-1.5-1.2-3.4-1.7-5.5-1.5c-0.4,0-0.8,0.1-1.2,0.3c-0.4,0.1-0.8,0.3-1.2,0.4l0,0c0,0-0.9,0.3-2.3,0.8
		c-5.2,1.9-17.6,6.2-17.9,6.3c-1.1,2.5-2,3.9-1.3,6.1c0.9,2.6,4.2,4.1,6.8,3l3.5-1.4l12.8-5.3l-2.3,12.3l-1.7,9.2
		c-0.4,2,0.9,3.8,2.8,4.3c2,0.4,3.9-0.8,4.4-2.8c2.2-10,3.6-16.3,4.5-20.3c0.4-1.8,0.7-3.2,0.9-4.2s0.2-2,0-3
		C63.2,54.6,62.4,53.2,61.2,52.2z"/>
</g>
</svg>
